<svg width="25" height="1140" viewBox="0 0 25 1140" fill="none" xmlns="http://www.w3.org/2000/svg">
<rect x="0.421631" width="24" height="24" rx="4" fill="#202020"/>
<path d="M16.8905 9.24992C16.8905 7.17825 15.2863 5.58325 13.2238 5.58325H7.49463V18.4166H13.948C15.8638 18.4166 17.3488 16.8583 17.3488 14.9424C17.3488 13.5491 16.5605 12.3574 15.378 11.8074C16.2671 11.1933 16.8905 10.1849 16.8905 9.24992ZM10.2446 7.87492H12.9946C13.7555 7.87492 14.3696 8.48909 14.3696 9.24992C14.3696 10.0108 13.7555 10.6249 12.9946 10.6249H10.2446V7.87492ZM13.453 16.1249H10.2446V13.3749H13.453C14.2138 13.3749 14.828 13.9891 14.828 14.7499C14.828 15.5108 14.2138 16.1249 13.453 16.1249Z" fill="white"/>
<rect x="0.421631" y="36" width="24" height="24" rx="4" fill="#202020"/>
<path d="M14.6716 54H8.67163V52.5H10.8669L12.4539 43.5H10.1716V42H16.1716V43.5H13.9764L12.3894 52.5H14.6716V54Z" fill="white"/>
<rect x="0.421631" y="72" width="24" height="24" rx="4" fill="#202020"/>
<path d="M7.75488 90H17.0882V88.6667H7.75488V90ZM12.4215 87.3333C13.4824 87.3333 14.4998 86.9119 15.25 86.1618C16.0001 85.4116 16.4215 84.3942 16.4215 83.3333V78H14.7549V83.3333C14.7549 83.9522 14.509 84.5457 14.0715 84.9832C13.6339 85.4208 13.0404 85.6667 12.4215 85.6667C11.8027 85.6667 11.2092 85.4208 10.7716 84.9832C10.334 84.5457 10.0882 83.9522 10.0882 83.3333V78H8.42155V83.3333C8.42155 84.3942 8.84298 85.4116 9.59312 86.1618C10.3433 86.9119 11.3607 87.3333 12.4215 87.3333Z" fill="white"/>
<rect x="0.421631" y="108" width="24" height="24" rx="4" fill="#202020"/>
<path d="M16.2871 121.5C16.4596 121.887 16.5466 122.318 16.5466 122.79C16.5466 123.797 16.1536 124.584 15.3684 125.15C14.5816 125.717 13.4964 126 12.1111 126C10.8811 126 9.66388 125.714 8.45863 125.142V123.45C9.59863 124.108 10.7649 124.437 11.9581 124.437C13.8714 124.437 14.8306 123.888 14.8374 122.789C14.8413 122.566 14.8003 122.345 14.7168 122.139C14.6333 121.932 14.509 121.744 14.3514 121.587L14.2614 121.499H5.67163V119.999H19.1716V121.499H16.2871V121.5ZM13.2286 119.25H9.14338C9.012 119.13 8.8913 118.999 8.78263 118.858C8.45863 118.44 8.29663 117.934 8.29663 117.339C8.29663 116.412 8.64613 115.624 9.34438 114.974C10.0441 114.325 11.1249 114 12.5881 114C13.6914 114 14.7474 114.246 15.7546 114.738V116.352C14.8546 115.837 13.8684 115.579 12.7951 115.579C10.9351 115.579 10.0059 116.166 10.0059 117.339C10.0059 117.654 10.1694 117.928 10.4964 118.163C10.8234 118.398 11.2269 118.585 11.7061 118.726C12.1711 118.861 12.6789 119.036 13.2286 119.25Z" fill="white"/>
<rect x="0.421631" y="144" width="24" height="24" rx="4" fill="#202020"/>
<path fill-rule="evenodd" clip-rule="evenodd" d="M11.0883 150.667H17.755C17.9318 150.667 18.1013 150.737 18.2264 150.862C18.3514 150.987 18.4216 151.157 18.4216 151.333C18.4216 151.51 18.3514 151.68 18.2264 151.805C18.1013 151.93 17.9318 152 17.755 152H11.0883C10.9115 152 10.7419 151.93 10.6169 151.805C10.4919 151.68 10.4216 151.51 10.4216 151.333C10.4216 151.157 10.4919 150.987 10.6169 150.862C10.7419 150.737 10.9115 150.667 11.0883 150.667ZM11.0883 155.333H17.755C17.9318 155.333 18.1013 155.404 18.2264 155.529C18.3514 155.654 18.4216 155.823 18.4216 156C18.4216 156.177 18.3514 156.346 18.2264 156.471C18.1013 156.596 17.9318 156.667 17.755 156.667H11.0883C10.9115 156.667 10.7419 156.596 10.6169 156.471C10.4919 156.346 10.4216 156.177 10.4216 156C10.4216 155.823 10.4919 155.654 10.6169 155.529C10.7419 155.404 10.9115 155.333 11.0883 155.333ZM11.0883 160H17.755C17.9318 160 18.1013 160.07 18.2264 160.195C18.3514 160.32 18.4216 160.49 18.4216 160.667C18.4216 160.843 18.3514 161.013 18.2264 161.138C18.1013 161.263 17.9318 161.333 17.755 161.333H11.0883C10.9115 161.333 10.7419 161.263 10.6169 161.138C10.4919 161.013 10.4216 160.843 10.4216 160.667C10.4216 160.49 10.4919 160.32 10.6169 160.195C10.7419 160.07 10.9115 160 11.0883 160ZM7.75496 152.667C7.40134 152.667 7.0622 152.526 6.81216 152.276C6.56211 152.026 6.42163 151.687 6.42163 151.333C6.42163 150.98 6.56211 150.641 6.81216 150.391C7.0622 150.14 7.40134 150 7.75496 150C8.10859 150 8.44772 150.14 8.69777 150.391C8.94782 150.641 9.0883 150.98 9.0883 151.333C9.0883 151.687 8.94782 152.026 8.69777 152.276C8.44772 152.526 8.10859 152.667 7.75496 152.667ZM7.75496 157.333C7.40134 157.333 7.0622 157.193 6.81216 156.943C6.56211 156.693 6.42163 156.354 6.42163 156C6.42163 155.646 6.56211 155.307 6.81216 155.057C7.0622 154.807 7.40134 154.667 7.75496 154.667C8.10859 154.667 8.44772 154.807 8.69777 155.057C8.94782 155.307 9.0883 155.646 9.0883 156C9.0883 156.354 8.94782 156.693 8.69777 156.943C8.44772 157.193 8.10859 157.333 7.75496 157.333ZM7.75496 162C7.40134 162 7.0622 161.86 6.81216 161.609C6.56211 161.359 6.42163 161.02 6.42163 160.667C6.42163 160.313 6.56211 159.974 6.81216 159.724C7.0622 159.474 7.40134 159.333 7.75496 159.333C8.10859 159.333 8.44772 159.474 8.69777 159.724C8.94782 159.974 9.0883 160.313 9.0883 160.667C9.0883 161.02 8.94782 161.359 8.69777 161.609C8.44772 161.86 8.10859 162 7.75496 162Z" fill="white"/>
<rect x="0.421631" y="180" width="24" height="24" rx="4" fill="#202020"/>
<path d="M7.71106 186.996C7.92478 187.046 8.07649 187.228 8.07649 187.441V191.089C8.07534 191.15 8.06216 191.21 8.03772 191.266C8.01328 191.322 7.97804 191.373 7.93403 191.415C7.89001 191.457 7.83808 191.491 7.78121 191.513C7.72433 191.535 7.66361 191.546 7.60253 191.545C7.54145 191.546 7.48074 191.535 7.42386 191.513C7.36698 191.491 7.31505 191.457 7.27104 191.415C7.22702 191.373 7.19179 191.322 7.16734 191.266C7.1429 191.21 7.12972 191.15 7.12857 191.089V188.734C6.90505 188.926 6.65794 189.088 6.39327 189.216C6.28147 189.271 6.15298 189.28 6.03457 189.242C5.91616 189.204 5.81696 189.122 5.75763 189.012C5.73018 188.959 5.71391 188.9 5.70978 188.839C5.70566 188.779 5.71377 188.719 5.73363 188.661C5.75349 188.604 5.78469 188.552 5.82535 188.507C5.86601 188.462 5.9153 188.426 5.97025 188.401C6.36115 188.213 6.66679 187.923 6.8783 187.669C6.98956 187.534 7.08956 187.391 7.1773 187.24C7.22772 187.146 7.30709 187.072 7.4034 187.028C7.4997 186.984 7.6077 186.973 7.71106 186.996ZM6.01676 193.691C5.97299 193.65 5.93814 193.6 5.91432 193.544C5.89051 193.489 5.87822 193.429 5.87822 193.369C5.87822 193.309 5.89051 193.249 5.91432 193.194C5.93814 193.138 5.97299 193.088 6.01676 193.047L6.01897 193.046V193.042L6.0234 193.04L6.03226 193.031C6.06841 192.998 6.10649 192.967 6.14632 192.938C6.56659 192.625 7.07647 192.456 7.60032 192.456H7.60807C7.96243 192.461 8.3478 192.549 8.65676 192.77C8.98344 193.002 9.19384 193.363 9.19384 193.823C9.19384 194.323 8.96461 194.672 8.65344 194.921C8.41646 195.113 8.11082 195.257 7.86277 195.374C7.8229 195.392 7.78525 195.411 7.74871 195.429C7.45303 195.57 7.23045 195.694 7.0732 195.861C7.00517 195.932 6.95008 196.014 6.91042 196.104H8.72099C8.84397 196.102 8.96277 196.149 9.05139 196.234C9.14 196.319 9.19122 196.436 9.19384 196.559C9.19269 196.62 9.17952 196.681 9.15507 196.737C9.13063 196.793 9.09539 196.843 9.05138 196.886C9.00736 196.928 8.95544 196.961 8.89856 196.984C8.84168 197.006 8.78096 197.017 8.71988 197.016H6.35229C6.29121 197.017 6.2305 197.006 6.17362 196.984C6.11674 196.961 6.06481 196.928 6.0208 196.886C5.97679 196.843 5.94155 196.793 5.91711 196.737C5.89266 196.681 5.87949 196.62 5.87833 196.559C5.87833 195.995 6.06659 195.57 6.37223 195.248C6.65904 194.944 7.0278 194.755 7.32458 194.612C7.3722 194.59 7.41871 194.568 7.46189 194.546C7.7177 194.424 7.90485 194.336 8.0477 194.222C8.18059 194.114 8.24703 194.008 8.24703 193.823C8.24703 193.659 8.18391 193.568 8.092 193.503C7.9432 193.411 7.77085 193.364 7.59589 193.368C7.26651 193.369 6.94731 193.482 6.69005 193.688L6.68451 193.693C6.59377 193.778 6.47436 193.824 6.35053 193.824C6.2267 193.823 6.10776 193.775 6.01786 193.69L6.01676 193.691ZM12.2137 189.2C11.9934 189.2 11.7822 189.287 11.6264 189.443C11.4706 189.599 11.3831 189.81 11.3831 190.03C11.3831 190.25 11.4706 190.462 11.6264 190.617C11.7822 190.773 11.9934 190.861 12.2137 190.861H18.3043C18.5246 190.861 18.7358 190.773 18.8916 190.617C19.0473 190.462 19.1348 190.25 19.1348 190.03C19.1348 189.81 19.0473 189.599 18.8916 189.443C18.7358 189.287 18.5246 189.2 18.3043 189.2H12.2137ZM12.2137 193.629C11.9934 193.629 11.7822 193.717 11.6264 193.872C11.4706 194.028 11.3831 194.239 11.3831 194.46C11.3831 194.68 11.4706 194.891 11.6264 195.047C11.7822 195.203 11.9934 195.29 12.2137 195.29H18.3043C18.5246 195.29 18.7358 195.203 18.8916 195.047C19.0473 194.891 19.1348 194.68 19.1348 194.46C19.1348 194.239 19.0473 194.028 18.8916 193.872C18.7358 193.717 18.5246 193.629 18.3043 193.629H12.2137Z" fill="white"/>
<rect x="-0.000244141" y="216" width="24.8438" height="24" rx="4" fill="#202020"/>
<path d="M15.8435 234V232.5C15.8435 232.288 15.9155 232.109 16.0595 231.965C16.2035 231.821 16.3815 231.75 16.5935 231.75H18.0935V231H15.8435V230.25H18.0935C18.306 230.25 18.4843 230.322 18.6283 230.466C18.7723 230.61 18.844 230.788 18.8435 231V231.75C18.8435 231.962 18.7715 232.141 18.6275 232.285C18.4835 232.429 18.3055 232.5 18.0935 232.5H16.5935V233.25H18.8435V234H15.8435ZM5.99976 232.5L9.46851 227.044L6.24351 222H8.23101L10.556 225.75H10.631L12.9373 222H14.9435L11.6998 227.044L15.1873 232.5H13.181L10.631 228.431H10.556L8.00601 232.5H5.99976Z" fill="white"/>
<rect x="-0.000244141" y="252" width="24.8438" height="24" rx="4" fill="#202020"/>
<path d="M15.8435 261.75V260.25C15.8435 260.037 15.9155 259.859 16.0595 259.715C16.2035 259.571 16.3815 259.5 16.5935 259.5H18.0935V258.75H15.8435V258H18.0935C18.306 258 18.4843 258.072 18.6283 258.216C18.7723 258.36 18.844 258.538 18.8435 258.75V259.5C18.8435 259.712 18.7715 259.891 18.6275 260.035C18.4835 260.179 18.3055 260.25 18.0935 260.25H16.5935V261H18.8435V261.75H15.8435ZM5.99976 270L9.46851 264.544L6.24351 259.5H8.23101L10.556 263.25H10.631L12.9373 259.5H14.9435L11.6998 264.544L15.1873 270H13.181L10.631 265.931H10.556L8.00601 270H5.99976Z" fill="white"/>
<rect x="0.421631" y="288" width="24" height="24" rx="4" fill="#202020"/>
<rect width="6.94823" height="1.44229" transform="matrix(-1 0 0 1 15.8958 296.37)" fill="white"/>
<rect width="14.7599" height="1.44229" transform="matrix(-1 0 0 1 19.8015 299.279)" fill="white"/>
<rect width="6.94823" height="1.44229" transform="matrix(-1 0 0 1 15.8958 302.188)" fill="white"/>
<rect x="0.421631" y="324" width="24" height="24" rx="4" fill="#202020"/>
<rect width="6.94823" height="1.44229" transform="matrix(-1 0 0 1 19.8015 332.37)" fill="white"/>
<rect width="14.7599" height="1.44229" transform="matrix(-1 0 0 1 19.8015 335.279)" fill="white"/>
<rect width="6.94823" height="1.44229" transform="matrix(-1 0 0 1 19.8015 338.188)" fill="white"/>
<rect x="0.421631" y="360" width="24" height="24" rx="4" fill="#202020"/>
<rect x="5.04175" y="368.37" width="6.94823" height="1.44229" fill="white"/>
<rect x="5.04175" y="371.279" width="14.7599" height="1.44229" fill="white"/>
<rect x="5.04175" y="374.188" width="6.94823" height="1.44229" fill="white"/>
<rect x="0.421631" y="396" width="24" height="24" rx="4" fill="#202020"/>
<rect x="5.04175" y="404.37" width="14.7599" height="1.44229" fill="white"/>
<rect x="5.04175" y="407.279" width="14.7599" height="1.44229" fill="white"/>
<rect x="5.04175" y="410.188" width="14.7599" height="1.44229" fill="white"/>
<rect x="0.421631" y="432" width="24" height="24" rx="4" fill="#202020"/>
<path d="M16.1424 447.975C15.9972 448.112 15.8159 448.181 15.5985 448.181C15.3805 448.181 15.1924 448.106 15.034 447.956C14.8757 447.806 14.7965 447.628 14.7965 447.421C14.7965 447.215 14.8757 447.037 15.034 446.887L18.1017 443.981L15.0142 441.056C14.8691 440.919 14.7997 440.747 14.806 440.54C14.8129 440.334 14.8889 440.162 15.034 440.025C15.1792 439.887 15.3639 439.819 15.5882 439.819C15.8125 439.819 15.9972 439.887 16.1424 440.025L19.784 443.475C19.9424 443.625 20.0215 443.8 20.0215 444C20.0215 444.2 19.9424 444.375 19.784 444.525L16.1424 447.975ZM8.7007 447.975L5.05903 444.525C4.9007 444.375 4.82153 444.2 4.82153 444C4.82153 443.8 4.9007 443.625 5.05903 443.475L8.7007 440.025C8.84584 439.887 9.03056 439.815 9.25487 439.809C9.47917 439.803 9.67049 439.875 9.82882 440.025C9.98716 440.175 10.0663 440.353 10.0663 440.559C10.0663 440.765 9.98716 440.944 9.82882 441.094L6.74132 444.019L9.82882 446.944C9.97396 447.081 10.0434 447.253 10.037 447.459C10.0302 447.665 9.95417 447.837 9.80903 447.975C9.66389 448.112 9.47917 448.181 9.25487 448.181C9.03056 448.181 8.84584 448.112 8.7007 447.975Z" fill="white"/>
<rect x="0.421631" y="468" width="24" height="24" rx="4" fill="#202020"/>
<g clip-path="url(#clip0_824_5821)">
<path d="M13.4646 474.091C13.6604 474.125 13.8344 474.236 13.9483 474.399C14.0622 474.562 14.1068 474.764 14.0721 474.96L12.2496 485.3C12.2151 485.496 12.1041 485.67 11.9412 485.784C11.7782 485.899 11.5766 485.943 11.3807 485.909C11.1848 485.874 11.0106 485.763 10.8964 485.6C10.7823 485.437 10.7376 485.236 10.7721 485.04L12.5946 474.699C12.6118 474.602 12.6479 474.509 12.701 474.426C12.754 474.343 12.8229 474.271 12.9037 474.215C12.9845 474.158 13.0756 474.119 13.1718 474.097C13.2681 474.076 13.3676 474.073 13.4646 474.091ZM8.82658 476.287C8.96718 476.428 9.04617 476.619 9.04617 476.818C9.04617 477.017 8.96718 477.207 8.82658 477.348L6.17608 480L8.82733 482.651C8.89701 482.721 8.9523 482.803 8.99003 482.894C9.02776 482.985 9.0472 483.083 9.04723 483.182C9.04727 483.28 9.0279 483.378 8.99023 483.469C8.95257 483.56 8.89734 483.642 8.8277 483.712C8.75807 483.782 8.6754 483.837 8.5844 483.875C8.4934 483.912 8.39586 483.932 8.29735 483.932C8.19883 483.932 8.10128 483.913 8.01025 483.875C7.91923 483.837 7.83651 483.782 7.76683 483.712L4.58458 480.53C4.44398 480.39 4.36499 480.199 4.36499 480C4.36499 479.801 4.44398 479.61 4.58458 479.47L7.76683 476.287C7.90748 476.147 8.09821 476.068 8.29708 476.068C8.49595 476.068 8.68593 476.147 8.82658 476.287ZM17.0766 476.287L20.2588 479.47C20.3994 479.61 20.4784 479.801 20.4784 480C20.4784 480.199 20.3994 480.39 20.2588 480.53L17.0766 483.712C17.0074 483.783 16.9246 483.84 16.8331 483.88C16.7416 483.919 16.6432 483.94 16.5436 483.941C16.444 483.941 16.3453 483.922 16.2531 483.885C16.1609 483.847 16.0772 483.791 16.0068 483.721C15.9364 483.651 15.8807 483.567 15.843 483.475C15.8053 483.382 15.7863 483.284 15.7871 483.184C15.788 483.085 15.8087 482.986 15.848 482.895C15.8873 482.803 15.9444 482.72 16.0161 482.651L18.6681 480L16.0168 477.348C15.9452 477.279 15.8881 477.196 15.8488 477.104C15.8094 477.013 15.7888 476.915 15.7879 476.815C15.787 476.715 15.806 476.617 15.8437 476.524C15.8814 476.432 15.9371 476.349 16.0075 476.278C16.078 476.208 16.1617 476.152 16.2539 476.114C16.346 476.077 16.4448 476.058 16.5444 476.058C16.644 476.059 16.7424 476.08 16.8339 476.119C16.9254 476.159 17.0074 476.216 17.0766 476.287Z" fill="white"/>
</g>
<rect x="0.421631" y="504" width="24" height="24" rx="4" fill="#202020"/>
<path d="M7.17163 521.25V520.083H17.6716V521.25H7.17163ZM11.8383 518.917V517.75H17.6716V518.917H11.8383ZM9.50496 518.333L7.17163 516L9.50496 513.667V518.333ZM11.8383 516.583V515.417H17.6716V516.583H11.8383ZM11.8383 514.25V513.083H17.6716V514.25H11.8383ZM7.17163 511.917V510.75H17.6716V511.917H7.17163Z" fill="white"/>
<rect x="0.421631" y="540" width="24" height="24" rx="4" fill="#202020"/>
<path d="M17.6716 557.25V556.083H7.17163V557.25H17.6716ZM13.005 554.917V553.75H7.17163V554.917H13.005ZM15.3383 554.333L17.6716 552L15.3383 549.667V554.333ZM13.005 552.583V551.417H7.17163V552.583H13.005ZM13.005 550.25V549.083H7.17163V550.25H13.005ZM17.6716 547.917V546.75H7.17163V547.917H17.6716Z" fill="white"/>
<rect x="0.421631" y="576" width="24" height="24" rx="4" fill="#202020"/>
<path d="M11.5991 588.822C11.8383 589.05 11.8383 589.423 11.5991 589.651C11.3716 589.878 10.9983 589.878 10.7708 589.651C10.2244 589.104 9.91753 588.362 9.91753 587.589C9.91753 586.815 10.2244 586.074 10.7708 585.527L12.8358 583.462C13.3829 582.915 14.1246 582.608 14.8978 582.608C15.6711 582.608 16.4127 582.915 16.9599 583.462C17.5063 584.009 17.8132 584.75 17.8132 585.524C17.8132 586.297 17.5063 587.039 16.9599 587.586L16.0908 588.455C16.0966 587.977 16.0208 587.498 15.8574 587.043L16.1316 586.763C16.2951 586.602 16.425 586.409 16.5136 586.197C16.6022 585.984 16.6478 585.757 16.6478 585.527C16.6478 585.297 16.6022 585.069 16.5136 584.857C16.425 584.644 16.2951 584.452 16.1316 584.29C15.9698 584.126 15.7772 583.997 15.565 583.908C15.3527 583.819 15.125 583.774 14.8949 583.774C14.6649 583.774 14.4372 583.819 14.2249 583.908C14.0126 583.997 13.82 584.126 13.6583 584.29L11.5991 586.349C11.4356 586.511 11.3057 586.703 11.2171 586.916C11.1285 587.128 11.0829 587.356 11.0829 587.586C11.0829 587.816 11.1285 588.044 11.2171 588.256C11.3057 588.468 11.4356 588.661 11.5991 588.822ZM13.2441 586.349C13.4716 586.122 13.8449 586.122 14.0724 586.349C14.6188 586.896 14.9257 587.638 14.9257 588.411C14.9257 589.184 14.6188 589.926 14.0724 590.473L12.0074 592.538C11.4602 593.085 10.7186 593.392 9.94535 593.392C9.1721 593.392 8.43045 593.085 7.88327 592.538C7.3369 591.991 7.03003 591.249 7.03003 590.476C7.03003 589.703 7.3369 588.961 7.88327 588.414L8.75243 587.545C8.7466 588.023 8.82243 588.502 8.98577 588.962L8.7116 589.237C8.54807 589.398 8.41825 589.591 8.32964 589.803C8.24104 590.016 8.19542 590.243 8.19542 590.473C8.19542 590.703 8.24104 590.931 8.32964 591.143C8.41825 591.356 8.54807 591.548 8.7116 591.71C8.87336 591.873 9.06596 592.003 9.27823 592.092C9.4905 592.181 9.71824 592.226 9.94827 592.226C10.1783 592.226 10.406 592.181 10.6183 592.092C10.8306 592.003 11.0232 591.873 11.1849 591.71L13.2441 589.651C13.4076 589.489 13.5375 589.296 13.6261 589.084C13.7147 588.872 13.7603 588.644 13.7603 588.414C13.7603 588.184 13.7147 587.956 13.6261 587.744C13.5375 587.532 13.4076 587.339 13.2441 587.177C13.1874 587.124 13.1423 587.06 13.1114 586.989C13.0805 586.918 13.0646 586.841 13.0646 586.763C13.0646 586.686 13.0805 586.609 13.1114 586.538C13.1423 586.466 13.1874 586.402 13.2441 586.349Z" fill="white"/>
<rect x="0.421631" y="612" width="24" height="24" rx="4" fill="#202020"/>
<path d="M11.6049 624.817C11.6891 624.929 11.73 625.068 11.7201 625.208C11.7101 625.348 11.65 625.48 11.5507 625.579C11.4514 625.678 11.3196 625.739 11.1795 625.749C11.0395 625.759 10.9005 625.718 10.7882 625.633C10.5092 625.371 10.2868 625.055 10.1348 624.704C9.98276 624.353 9.90433 623.974 9.90433 623.592C9.90433 623.209 9.98276 622.83 10.1348 622.479C10.2868 622.128 10.5092 621.812 10.7882 621.55L12.8299 619.45C13.3849 618.912 14.1276 618.611 14.9007 618.611C15.6738 618.611 16.4165 618.912 16.9715 619.45C17.5096 620.005 17.8106 620.748 17.8106 621.521C17.8106 622.294 17.5096 623.037 16.9715 623.592L16.0965 624.467C16.109 623.989 16.0298 623.514 15.8632 623.067L16.1549 622.775C16.4664 622.432 16.6389 621.985 16.6389 621.521C16.6389 621.057 16.4664 620.61 16.1549 620.267C15.8114 619.955 15.3644 619.783 14.9007 619.783C14.437 619.783 13.9899 619.955 13.6465 620.267L11.6049 622.367C11.439 622.525 11.3069 622.715 11.2166 622.925C11.1264 623.136 11.0799 623.363 11.0799 623.592C11.0799 623.821 11.1264 624.047 11.2166 624.258C11.3069 624.469 11.439 624.659 11.6049 624.817ZM14.8715 624.992C14.9726 624.521 14.9506 624.032 14.8075 623.572C14.6645 623.112 14.4052 622.697 14.0549 622.367C13.9425 622.282 13.8036 622.242 13.6635 622.251C13.5234 622.261 13.3917 622.322 13.2924 622.421C13.1931 622.52 13.1329 622.652 13.123 622.792C13.113 622.932 13.1539 623.071 13.2382 623.183C13.4041 623.341 13.5362 623.531 13.6264 623.742C13.7167 623.953 13.7632 624.179 13.7632 624.408C13.7632 624.637 13.7167 624.864 13.6264 625.075C13.5362 625.285 13.4041 625.475 13.2382 625.633L11.1965 627.733C10.8531 628.045 10.406 628.217 9.94236 628.217C9.47869 628.217 9.03161 628.045 8.68819 627.733C8.37666 627.39 8.2041 626.943 8.2041 626.479C8.2041 626.016 8.37666 625.568 8.68819 625.225L8.97986 624.992C8.81773 624.523 8.73877 624.029 8.74652 623.533L7.87152 624.408C7.3334 624.963 7.03247 625.706 7.03247 626.479C7.03247 627.252 7.3334 627.995 7.87152 628.55C8.42656 629.088 9.16928 629.389 9.94236 629.389C10.7154 629.389 11.4581 629.088 12.0132 628.55L13.0632 627.5C13.1524 626.971 13.3618 626.47 13.6753 626.035C13.9889 625.6 14.3981 625.243 14.8715 624.992ZM17.7299 626.042L16.5049 627.267L15.2799 626.042L14.4632 626.858L15.6882 628.083L14.4632 629.308L15.2799 630.125L16.5049 628.9L17.7299 630.125L18.5465 629.308L17.3215 628.083L18.5465 626.858L17.7299 626.042Z" fill="white"/>
<rect x="0.421631" y="648" width="24" height="24" rx="4" fill="#202020"/>
<path d="M16.505 655.917V664.083H8.3383V655.917H16.505ZM16.505 654.75H8.3383C7.69663 654.75 7.17163 655.275 7.17163 655.917V664.083C7.17163 664.725 7.69663 665.25 8.3383 665.25H16.505C17.1466 665.25 17.6716 664.725 17.6716 664.083V655.917C17.6716 655.275 17.1466 654.75 16.505 654.75ZM13.67 659.918L11.92 662.176L10.6716 660.665L8.92163 662.917H15.9216L13.67 659.918Z" fill="white"/>
<rect x="0.421631" y="684" width="24" height="24" rx="4" fill="#202020"/>
<path d="M7.17163 701.25V690.75H17.6716V701.25H7.17163ZM8.3383 694.25H16.505V691.917H8.3383V694.25ZM11.4445 697.167H13.3987V695.417H11.4445V697.167ZM11.4445 700.083H13.3987V698.333H11.4445V700.083ZM8.3383 697.167H10.2779V695.417H8.3383V697.167ZM14.5654 697.167H16.505V695.417H14.5654V697.167ZM8.3383 700.083H10.2779V698.333H8.3383V700.083ZM14.5654 700.083H16.505V698.333H14.5654V700.083Z" fill="white"/>
<rect x="0.421631" y="720" width="24" height="24" rx="4" fill="#202020"/>
<path d="M7.42163 737.25V735.25H17.4216V737.25H7.42163ZM9.17163 733.75L11.7966 726.75H13.0466L15.6716 733.75H14.4716L13.8466 731.95H11.0216L10.3716 733.75H9.17163ZM11.3716 730.95H13.4716L12.4466 728.05H12.3966L11.3716 730.95Z" fill="white"/>
<rect x="0.421631" y="756" width="24" height="24" rx="4" fill="#202020"/>
<path opacity="0.5" d="M15.6692 762.556C15.9013 762.556 16.1238 762.637 16.2879 762.783C16.452 762.929 16.5442 763.127 16.5442 763.333C16.5442 763.54 16.452 763.737 16.2879 763.883C16.1238 764.029 15.9013 764.111 15.6692 764.111H8.66919C8.43713 764.111 8.21457 764.029 8.05047 763.883C7.88638 763.737 7.79419 763.54 7.79419 763.333C7.79419 763.127 7.88638 762.929 8.05047 762.783C8.21457 762.637 8.43713 762.556 8.66919 762.556H15.6692ZM16.5442 766.444C16.5442 766.651 16.452 766.849 16.2879 766.994C16.1238 767.14 15.9013 767.222 15.6692 767.222H8.66919C8.43713 767.222 8.21457 767.14 8.05047 766.994C7.88638 766.849 7.79419 766.651 7.79419 766.444C7.79419 766.238 7.88638 766.04 8.05047 765.894C8.21457 765.749 8.43713 765.667 8.66919 765.667H15.6692C15.9013 765.667 16.1238 765.749 16.2879 765.894C16.452 766.04 16.5442 766.238 16.5442 766.444ZM15.6692 773.444C15.9013 773.444 16.1238 773.362 16.2879 773.217C16.452 773.071 16.5442 772.873 16.5442 772.667C16.5442 772.46 16.452 772.263 16.2879 772.117C16.1238 771.971 15.9013 771.889 15.6692 771.889H8.66919C8.43713 771.889 8.21457 771.971 8.05047 772.117C7.88638 772.263 7.79419 772.46 7.79419 772.667C7.79419 772.873 7.88638 773.071 8.05047 773.217C8.21457 773.362 8.43713 773.444 8.66919 773.444H15.6692Z" fill="white"/>
<path fill-rule="evenodd" clip-rule="evenodd" d="M20.0442 769.555C20.0442 769.762 19.952 769.96 19.7879 770.105C19.6238 770.251 19.4013 770.333 19.1692 770.333H5.16919C4.93713 770.333 4.71457 770.251 4.55047 770.105C4.38638 769.96 4.29419 769.762 4.29419 769.555C4.29419 769.349 4.38638 769.151 4.55047 769.006C4.71457 768.86 4.93713 768.778 5.16919 768.778H19.1692C19.4013 768.778 19.6238 768.86 19.7879 769.006C19.952 769.151 20.0442 769.349 20.0442 769.555Z" fill="white"/>
<rect x="0.421631" y="792" width="24" height="24" rx="4" fill="#202020"/>
<path d="M10.0884 808.083C9.92308 808.083 9.78444 808.027 9.67244 807.915C9.56044 807.803 9.50463 807.665 9.50502 807.5C9.50502 807.335 9.56102 807.196 9.67302 807.084C9.78502 806.972 9.92347 806.916 10.0884 806.917H13.6467C14.2592 806.917 14.7916 806.722 15.2439 806.333C15.6961 805.944 15.9221 805.458 15.9217 804.875C15.9217 804.292 15.6955 803.806 15.2433 803.417C14.791 803.028 14.2588 802.833 13.6467 802.833H9.97169L11.08 803.942C11.187 804.049 11.2404 804.185 11.2404 804.35C11.2404 804.515 11.187 804.651 11.08 804.758C10.9731 804.865 10.837 804.919 10.6717 804.919C10.5064 804.919 10.3703 804.865 10.2634 804.758L8.16336 802.658C8.10502 802.6 8.06361 802.537 8.03911 802.469C8.01461 802.401 8.00255 802.328 8.00294 802.25C8.00294 802.172 8.01519 802.099 8.03969 802.031C8.06419 801.963 8.10541 801.9 8.16336 801.842L10.2634 799.742C10.3703 799.635 10.5064 799.581 10.6717 799.581C10.837 799.581 10.9731 799.635 11.08 799.742C11.187 799.849 11.2404 799.985 11.2404 800.15C11.2404 800.315 11.187 800.451 11.08 800.558L9.97169 801.667H13.6467C14.5897 801.667 15.3992 801.973 16.0751 802.585C16.751 803.198 17.0887 803.961 17.0884 804.875C17.0884 805.789 16.7504 806.552 16.0745 807.165C15.3986 807.777 14.5894 808.083 13.6467 808.083H10.0884Z" fill="white"/>
<rect x="0.421631" y="828" width="24" height="24" rx="4" fill="#202020"/>
<path d="M14.7549 844.083C14.9202 844.083 15.0588 844.027 15.1708 843.915C15.2828 843.803 15.3386 843.665 15.3382 843.5C15.3382 843.335 15.2822 843.196 15.1702 843.084C15.0582 842.972 14.9198 842.916 14.7549 842.917H11.1966C10.5841 842.917 10.0517 842.722 9.59941 842.333C9.14713 841.944 8.92118 841.458 8.92157 840.875C8.92157 840.292 9.14771 839.806 9.59999 839.417C10.0523 839.028 10.5845 838.833 11.1966 838.833H14.8716L13.7632 839.942C13.6563 840.049 13.6028 840.185 13.6028 840.35C13.6028 840.515 13.6563 840.651 13.7632 840.758C13.8702 840.865 14.0063 840.919 14.1716 840.919C14.3369 840.919 14.473 840.865 14.5799 840.758L16.6799 838.658C16.7382 838.6 16.7797 838.537 16.8042 838.469C16.8287 838.401 16.8407 838.328 16.8403 838.25C16.8403 838.172 16.8281 838.099 16.8036 838.031C16.7791 837.963 16.7379 837.9 16.6799 837.842L14.5799 835.742C14.473 835.635 14.3369 835.581 14.1716 835.581C14.0063 835.581 13.8702 835.635 13.7632 835.742C13.6563 835.849 13.6028 835.985 13.6028 836.15C13.6028 836.315 13.6563 836.451 13.7632 836.558L14.8716 837.667H11.1966C10.2535 837.667 9.44404 837.973 8.76816 838.585C8.09227 839.198 7.75452 839.961 7.75491 840.875C7.75491 841.789 8.09285 842.552 8.76874 843.165C9.44463 843.777 10.2539 844.083 11.1966 844.083H14.7549Z" fill="white"/>
<rect x="0.421631" y="864" width="24" height="24" rx="4" fill="#202020"/>
<path d="M16.7482 872.896C17.349 873.534 17.6716 874.25 17.6716 875.41C17.6716 877.452 16.2383 879.282 14.1541 880.187L13.6332 879.383C15.5786 878.33 15.9589 876.965 16.1106 876.104C15.7973 876.266 15.3873 876.323 14.9853 876.285C13.933 876.188 13.1035 875.324 13.1035 874.25C13.1035 873.709 13.3186 873.189 13.7015 872.806C14.0844 872.423 14.6037 872.208 15.1452 872.208C15.7711 872.208 16.3696 872.494 16.7482 872.896ZM10.9148 872.896C11.5157 873.534 11.8383 874.25 11.8383 875.41C11.8383 877.452 10.405 879.282 8.32075 880.187L7.79984 879.383C9.74525 878.33 10.1256 876.965 10.2773 876.104C9.964 876.266 9.55392 876.323 9.152 876.285C8.09967 876.188 7.27075 875.324 7.27075 874.25C7.27075 873.709 7.48586 873.189 7.86874 872.806C8.25163 872.423 8.77093 872.208 9.31242 872.208C9.93834 872.208 10.5368 872.494 10.9154 872.896H10.9148Z" fill="white"/>
<rect x="0.421631" y="900" width="24" height="24" rx="4" fill="#202020"/>
<path d="M17.1716 917.25L13.2341 913.575C12.9216 913.808 12.5623 913.993 12.156 914.129C11.7498 914.265 11.3175 914.333 10.8591 914.333C9.72371 914.333 8.76288 913.966 7.97663 913.233C7.18996 912.498 6.79663 911.601 6.79663 910.542C6.79663 909.482 7.18996 908.585 7.97663 907.851C8.76288 907.117 9.72371 906.75 10.8591 906.75C11.9945 906.75 12.9556 907.117 13.7423 907.851C14.5285 908.585 14.9216 909.482 14.9216 910.542C14.9216 910.969 14.8487 911.373 14.7029 911.752C14.557 912.131 14.3591 912.467 14.1091 912.758L18.0466 916.433L17.1716 917.25ZM10.8591 913.167C11.6404 913.167 12.3045 912.912 12.8516 912.401C13.3983 911.891 13.6716 911.271 13.6716 910.542C13.6716 909.812 13.3983 909.193 12.8516 908.682C12.3045 908.172 11.6404 907.917 10.8591 907.917C10.0779 907.917 9.41371 908.172 8.86663 908.682C8.31996 909.193 8.04663 909.812 8.04663 910.542C8.04663 911.271 8.31996 911.891 8.86663 912.401C9.41371 912.912 10.0779 913.167 10.8591 913.167Z" fill="white"/>
<rect x="0.421631" y="936" width="24" height="24" rx="4" fill="#202020"/>
<path d="M5.75488 942.667C5.75488 941.933 6.35488 941.333 7.08822 941.333H9.75488V942.667H7.08822V945.333H5.75488V942.667ZM19.0882 953.333C19.0882 954.073 18.4949 954.667 17.7549 954.667H15.0882V953.333H17.7549V950.667H19.0882V953.333ZM7.08822 954.667C6.73459 954.667 6.39546 954.526 6.14541 954.276C5.89536 954.026 5.75488 953.687 5.75488 953.333V950.667H7.08822V953.333H9.75488V954.667H7.08822ZM17.7549 941.333C18.1085 941.333 18.4476 941.474 18.6977 941.724C18.9477 941.974 19.0882 942.313 19.0882 942.667V945.333H17.7549V942.667H15.0882V941.333H17.7549ZM10.4215 944.667V946H11.7549V951.333H13.0882V946H14.4215V944.667H10.4215Z" fill="white"/>
<rect x="0.421631" y="972" width="24" height="24" rx="4" fill="#202020"/>
<path d="M8.00505 982.583C7.7606 982.583 7.57171 982.498 7.43838 982.326C7.30505 982.155 7.27171 981.951 7.33838 981.716C7.63838 980.724 8.18838 979.912 8.98838 979.28C9.78838 978.649 10.7106 978.333 11.755 978.333C12.4106 978.333 13.0246 978.466 13.597 978.732C14.1695 978.998 14.6666 979.361 15.0884 979.821V979.042C15.0884 978.841 15.1524 978.673 15.2804 978.537C15.4084 978.401 15.5666 978.333 15.755 978.333C15.9439 978.333 16.1024 978.401 16.2304 978.537C16.3584 978.673 16.4222 978.841 16.4217 979.042V981.875C16.4217 982.076 16.3577 982.244 16.2297 982.38C16.1017 982.516 15.9435 982.584 15.755 982.583H13.0884C12.8995 982.583 12.741 982.515 12.613 982.379C12.485 982.243 12.4213 982.075 12.4217 981.875C12.4217 981.674 12.4857 981.506 12.6137 981.37C12.7417 981.234 12.8999 981.166 13.0884 981.167H14.4217C14.0995 980.742 13.7133 980.399 13.263 980.14C12.8128 979.88 12.3102 979.75 11.755 979.75C11.0328 979.75 10.3828 979.968 9.80505 980.405C9.22727 980.842 8.82727 981.409 8.60505 982.105C8.5606 982.247 8.48283 982.362 8.37171 982.451C8.2606 982.54 8.13838 982.584 8.00505 982.583ZM17.0217 989.879L14.555 987.258C14.155 987.577 13.719 987.822 13.247 987.994C12.775 988.165 12.2777 988.251 11.755 988.25C11.0995 988.25 10.4855 988.117 9.91305 987.851C9.3406 987.585 8.84349 987.222 8.42171 986.763V987.542C8.42171 987.742 8.35771 987.911 8.22971 988.047C8.10171 988.183 7.94349 988.251 7.75505 988.25C7.56616 988.25 7.40771 988.182 7.27971 988.046C7.15171 987.91 7.08794 987.742 7.08838 987.542V984.708C7.08838 984.508 7.15238 984.339 7.28038 984.203C7.40838 984.067 7.5666 984 7.75505 984H10.4217C10.6106 984 10.769 984.068 10.897 984.204C11.025 984.34 11.0888 984.508 11.0884 984.708C11.0884 984.909 11.0244 985.077 10.8964 985.213C10.7684 985.349 10.6102 985.417 10.4217 985.417H9.08838C9.4106 985.842 9.79683 986.184 10.247 986.444C10.6973 986.704 11.1999 986.833 11.755 986.833C12.4773 986.833 13.1273 986.615 13.705 986.178C14.2828 985.741 14.6828 985.175 14.905 984.478C14.9495 984.337 15.0273 984.221 15.1384 984.133C15.2495 984.044 15.3717 984 15.505 984C15.7495 984 15.9384 984.089 16.0717 984.266C16.205 984.443 16.2384 984.649 16.1717 984.885C16.0939 985.133 15.9995 985.372 15.8884 985.602C15.7773 985.832 15.6439 986.054 15.4884 986.267L17.955 988.888C18.0773 989.017 18.1384 989.183 18.1384 989.383C18.1384 989.584 18.0773 989.749 17.955 989.879C17.8328 990.009 17.6773 990.074 17.4884 990.074C17.2995 990.074 17.1439 990.009 17.0217 989.879Z" fill="white"/>
<rect x="0.421631" y="1008" width="24" height="24" rx="4" fill="#202020"/>
<g clip-path="url(#clip1_824_5821)">
<path d="M7.10229 1012.43V1015.97H7.6939C7.6939 1015.38 7.6939 1014.2 8.2855 1013.61C8.87456 1013.02 9.46616 1013.02 10.0578 1013.02H11.2384V1023.06C11.2384 1023.95 10.9439 1024.83 10.0578 1024.83H9.47886L9.46616 1025.42H15.3746V1024.83H14.783C13.8968 1024.83 13.6023 1023.95 13.6023 1023.06V1013.02H14.783C15.3746 1013.02 15.9636 1013.02 16.5552 1013.61C17.1468 1014.2 17.1468 1015.38 17.1468 1015.98H17.7384V1012.43H7.10229Z" fill="white"/>
</g>
<mask id="path-68-outside-1_824_5821" maskUnits="userSpaceOnUse" x="11.896" y="1022.27" width="7" height="7" fill="black">
<rect fill="white" x="11.896" y="1022.27" width="7" height="7"/>
<path d="M17.0993 1023.37C17.0691 1023.34 17.0333 1023.32 16.9939 1023.3C16.9544 1023.29 16.9122 1023.28 16.8695 1023.28C16.8267 1023.28 16.7845 1023.29 16.745 1023.3C16.7056 1023.32 16.6698 1023.34 16.6396 1023.37L15.0453 1024.96L13.4509 1023.37C13.4207 1023.34 13.3849 1023.31 13.3455 1023.3C13.306 1023.28 13.2638 1023.27 13.2211 1023.27C13.1784 1023.27 13.1361 1023.28 13.0967 1023.3C13.0572 1023.31 13.0214 1023.34 12.9912 1023.37C12.961 1023.4 12.9371 1023.43 12.9207 1023.47C12.9044 1023.51 12.896 1023.56 12.896 1023.6C12.896 1023.64 12.9044 1023.68 12.9207 1023.72C12.9371 1023.76 12.961 1023.8 12.9912 1023.83L14.5855 1025.42L12.9912 1027.02C12.961 1027.05 12.9371 1027.08 12.9207 1027.12C12.9044 1027.16 12.896 1027.2 12.896 1027.25C12.896 1027.29 12.9044 1027.33 12.9207 1027.37C12.9371 1027.41 12.961 1027.45 12.9912 1027.48C13.0214 1027.51 13.0572 1027.53 13.0967 1027.55C13.1361 1027.56 13.1784 1027.57 13.2211 1027.57C13.2638 1027.57 13.306 1027.56 13.3455 1027.55C13.3849 1027.53 13.4207 1027.51 13.4509 1027.48L15.0453 1025.88L16.6396 1027.48C16.6698 1027.51 16.7056 1027.53 16.7451 1027.55C16.7845 1027.56 16.8268 1027.57 16.8695 1027.57C16.9121 1027.57 16.9544 1027.56 16.9938 1027.55C17.0333 1027.53 17.0691 1027.51 17.0993 1027.48C17.1295 1027.45 17.1534 1027.41 17.1698 1027.37C17.1861 1027.33 17.1945 1027.29 17.1945 1027.25C17.1945 1027.2 17.1861 1027.16 17.1698 1027.12C17.1534 1027.08 17.1295 1027.05 17.0993 1027.02L15.505 1025.42L17.0993 1023.83C17.2232 1023.7 17.2232 1023.5 17.0993 1023.37Z"/>
</mask>
<path d="M17.0993 1023.37C17.0691 1023.34 17.0333 1023.32 16.9939 1023.3C16.9544 1023.29 16.9122 1023.28 16.8695 1023.28C16.8267 1023.28 16.7845 1023.29 16.745 1023.3C16.7056 1023.32 16.6698 1023.34 16.6396 1023.37L15.0453 1024.96L13.4509 1023.37C13.4207 1023.34 13.3849 1023.31 13.3455 1023.3C13.306 1023.28 13.2638 1023.27 13.2211 1023.27C13.1784 1023.27 13.1361 1023.28 13.0967 1023.3C13.0572 1023.31 13.0214 1023.34 12.9912 1023.37C12.961 1023.4 12.9371 1023.43 12.9207 1023.47C12.9044 1023.51 12.896 1023.56 12.896 1023.6C12.896 1023.64 12.9044 1023.68 12.9207 1023.72C12.9371 1023.76 12.961 1023.8 12.9912 1023.83L14.5855 1025.42L12.9912 1027.02C12.961 1027.05 12.9371 1027.08 12.9207 1027.12C12.9044 1027.16 12.896 1027.2 12.896 1027.25C12.896 1027.29 12.9044 1027.33 12.9207 1027.37C12.9371 1027.41 12.961 1027.45 12.9912 1027.48C13.0214 1027.51 13.0572 1027.53 13.0967 1027.55C13.1361 1027.56 13.1784 1027.57 13.2211 1027.57C13.2638 1027.57 13.306 1027.56 13.3455 1027.55C13.3849 1027.53 13.4207 1027.51 13.4509 1027.48L15.0453 1025.88L16.6396 1027.48C16.6698 1027.51 16.7056 1027.53 16.7451 1027.55C16.7845 1027.56 16.8268 1027.57 16.8695 1027.57C16.9121 1027.57 16.9544 1027.56 16.9938 1027.55C17.0333 1027.53 17.0691 1027.51 17.0993 1027.48C17.1295 1027.45 17.1534 1027.41 17.1698 1027.37C17.1861 1027.33 17.1945 1027.29 17.1945 1027.25C17.1945 1027.2 17.1861 1027.16 17.1698 1027.12C17.1534 1027.08 17.1295 1027.05 17.0993 1027.02L15.505 1025.42L17.0993 1023.83C17.2232 1023.7 17.2232 1023.5 17.0993 1023.37Z" fill="white"/>
<path d="M17.0993 1023.37L16.3915 1024.08L16.3922 1024.08L17.0993 1023.37ZM16.8695 1023.28V1022.28V1023.28ZM16.6396 1023.37L17.346 1024.08L17.3474 1024.08L16.6396 1023.37ZM15.0453 1024.96L14.3382 1025.67L15.0445 1026.38L15.7516 1025.67L15.0453 1024.96ZM13.4509 1023.37L14.158 1022.66L14.158 1022.66L13.4509 1023.37ZM13.2211 1023.27V1024.27V1023.27ZM12.896 1023.6L11.896 1023.6L12.896 1023.6ZM12.9912 1023.83L12.2841 1024.54L12.2841 1024.54L12.9912 1023.83ZM14.5855 1025.42L15.2926 1026.13L15.9998 1025.42L15.2926 1024.72L14.5855 1025.42ZM12.9912 1027.02L12.2841 1026.31L12.2841 1026.31L12.9912 1027.02ZM12.896 1027.25H13.896H12.896ZM13.4509 1027.48L12.7438 1026.77H12.7438L13.4509 1027.48ZM15.0453 1025.88L15.7524 1025.18L15.0453 1024.47L14.3382 1025.18L15.0453 1025.88ZM16.6396 1027.48L15.9325 1028.18L16.6396 1027.48ZM17.0993 1027.02L17.8064 1026.31L17.0993 1027.02ZM15.505 1025.42L14.7979 1024.72L14.0908 1025.42L14.7979 1026.13L15.505 1025.42ZM17.0993 1023.83L16.3922 1023.12V1023.12L17.0993 1023.83ZM17.8071 1022.67C17.6841 1022.54 17.5379 1022.44 17.377 1022.38L16.6107 1024.23C16.5287 1024.19 16.4542 1024.14 16.3915 1024.08L17.8071 1022.67ZM17.377 1022.38C17.2161 1022.31 17.0436 1022.28 16.8695 1022.28V1024.28C16.7807 1024.28 16.6927 1024.26 16.6107 1024.23L17.377 1022.38ZM16.8695 1022.28C16.6953 1022.28 16.5228 1022.31 16.3619 1022.38L17.1282 1024.23C17.0462 1024.26 16.9582 1024.28 16.8695 1024.28V1022.28ZM16.3619 1022.38C16.201 1022.44 16.0548 1022.54 15.9318 1022.67L17.3474 1024.08C17.2847 1024.14 17.2102 1024.19 17.1282 1024.23L16.3619 1022.38ZM15.9332 1022.66L14.3389 1024.26L15.7516 1025.67L17.346 1024.08L15.9332 1022.66ZM15.7524 1024.26L14.158 1022.66L12.7438 1024.08L14.3382 1025.67L15.7524 1024.26ZM14.158 1022.66C14.035 1022.54 13.8889 1022.44 13.7281 1022.37L12.9628 1024.22C12.8809 1024.19 12.8065 1024.14 12.7438 1024.08L14.158 1022.66ZM13.7281 1022.37C13.5674 1022.31 13.3951 1022.27 13.2211 1022.27L13.2211 1024.27C13.1324 1024.27 13.0447 1024.26 12.9628 1024.22L13.7281 1022.37ZM13.2211 1022.27C13.0471 1022.27 12.8747 1022.31 12.714 1022.37L13.4793 1024.22C13.3975 1024.26 13.3097 1024.27 13.2211 1024.27L13.2211 1022.27ZM12.714 1022.37C12.5532 1022.44 12.4071 1022.54 12.2841 1022.66L13.6983 1024.08C13.6356 1024.14 13.5612 1024.19 13.4793 1024.22L12.714 1022.37ZM12.2841 1022.66C12.1611 1022.78 12.0635 1022.93 11.9969 1023.09L13.8446 1023.86C13.8107 1023.94 13.761 1024.01 13.6983 1024.08L12.2841 1022.66ZM11.9969 1023.09C11.9303 1023.25 11.896 1023.42 11.896 1023.6L13.896 1023.6C13.896 1023.69 13.8785 1023.78 13.8446 1023.86L11.9969 1023.09ZM11.896 1023.6C11.896 1023.77 11.9303 1023.95 11.9969 1024.11L13.8446 1023.34C13.8785 1023.42 13.896 1023.51 13.896 1023.6L11.896 1023.6ZM11.9969 1024.11C12.0635 1024.27 12.1611 1024.41 12.2841 1024.54L13.6983 1023.12C13.761 1023.18 13.8107 1023.26 13.8446 1023.34L11.9969 1024.11ZM12.2841 1024.54L13.8784 1026.13L15.2926 1024.72L13.6983 1023.12L12.2841 1024.54ZM13.8784 1024.72L12.2841 1026.31L13.6983 1027.72L15.2926 1026.13L13.8784 1024.72ZM12.2841 1026.31C12.1611 1026.43 12.0635 1026.58 11.9969 1026.74L13.8446 1027.51C13.8107 1027.59 13.761 1027.66 13.6983 1027.72L12.2841 1026.31ZM11.9969 1026.74C11.9303 1026.9 11.896 1027.07 11.896 1027.25H13.896C13.896 1027.34 13.8785 1027.42 13.8446 1027.51L11.9969 1026.74ZM11.896 1027.25C11.896 1027.42 11.9303 1027.59 11.9969 1027.75L13.8446 1026.99C13.8785 1027.07 13.896 1027.16 13.896 1027.25H11.896ZM11.9969 1027.75C12.0635 1027.91 12.1611 1028.06 12.2841 1028.18L13.6983 1026.77C13.761 1026.83 13.8107 1026.91 13.8446 1026.99L11.9969 1027.75ZM12.2841 1028.18C12.4071 1028.31 12.5532 1028.4 12.714 1028.47L13.4793 1026.62C13.5612 1026.66 13.6356 1026.71 13.6983 1026.77L12.2841 1028.18ZM12.714 1028.47C12.8747 1028.54 13.0471 1028.57 13.2211 1028.57V1026.57C13.3097 1026.57 13.3975 1026.59 13.4793 1026.62L12.714 1028.47ZM13.2211 1028.57C13.3951 1028.57 13.5674 1028.54 13.7281 1028.47L12.9628 1026.62C13.0447 1026.59 13.1324 1026.57 13.2211 1026.57V1028.57ZM13.7281 1028.47C13.8889 1028.4 14.035 1028.31 14.158 1028.18L12.7438 1026.77C12.8065 1026.71 12.8809 1026.66 12.9628 1026.62L13.7281 1028.47ZM14.158 1028.18L15.7524 1026.59L14.3382 1025.18L12.7438 1026.77L14.158 1028.18ZM14.3382 1026.59L15.9325 1028.18L17.3467 1026.77L15.7524 1025.18L14.3382 1026.59ZM15.9325 1028.18C16.0555 1028.31 16.2016 1028.4 16.3624 1028.47L17.1277 1026.62C17.2096 1026.66 17.284 1026.71 17.3467 1026.77L15.9325 1028.18ZM16.3624 1028.47C16.5231 1028.54 16.6954 1028.57 16.8695 1028.57V1026.57C16.9581 1026.57 17.0458 1026.59 17.1277 1026.62L16.3624 1028.47ZM16.8695 1028.57C17.0435 1028.57 17.2158 1028.54 17.3765 1028.47L16.6112 1026.62C16.6931 1026.59 16.7808 1026.57 16.8695 1026.57V1028.57ZM17.3765 1028.47C17.5373 1028.4 17.6834 1028.31 17.8064 1028.18L16.3922 1026.77C16.4549 1026.71 16.5293 1026.66 16.6112 1026.62L17.3765 1028.47ZM17.8064 1028.18C17.9295 1028.06 18.0271 1027.91 18.0937 1027.75L16.2459 1026.99C16.2798 1026.91 16.3295 1026.83 16.3922 1026.77L17.8064 1028.18ZM18.0937 1027.75C18.1602 1027.59 18.1945 1027.42 18.1945 1027.25H16.1945C16.1945 1027.16 16.212 1027.07 16.2459 1026.99L18.0937 1027.75ZM18.1945 1027.25C18.1945 1027.07 18.1602 1026.9 18.0937 1026.74L16.2459 1027.51C16.212 1027.42 16.1945 1027.34 16.1945 1027.25H18.1945ZM18.0937 1026.74C18.0271 1026.58 17.9295 1026.43 17.8064 1026.31L16.3922 1027.72C16.3295 1027.66 16.2798 1027.59 16.2459 1027.51L18.0937 1026.74ZM17.8064 1026.31L16.2121 1024.72L14.7979 1026.13L16.3922 1027.72L17.8064 1026.31ZM16.2121 1026.13L17.8064 1024.54L16.3922 1023.12L14.7979 1024.72L16.2121 1026.13ZM17.8064 1024.54C18.3208 1024.02 18.3208 1023.18 17.8064 1022.67L16.3922 1024.08C16.1256 1023.81 16.1256 1023.39 16.3922 1023.12L17.8064 1024.54Z" fill="#202020" mask="url(#path-68-outside-1_824_5821)"/>
<rect x="0.421631" y="1044" width="24" height="24" rx="4" fill="#202020"/>
<rect x="3.65796" y="1047.24" width="17.5272" height="17.5272" rx="2" fill="#202020"/>
<path d="M9.17163 1059.5L11.7966 1052.5H13.0466L15.6716 1059.5H14.4716L13.8466 1057.7H11.0216L10.3716 1059.5H9.17163ZM11.3716 1056.7H13.4716L12.4466 1053.8H12.3966L11.3716 1056.7Z" fill="white"/>
<rect x="0.421631" y="1080" width="24" height="24" rx="4" fill="#202020"/>
<path d="M7.22119 1086.01H17.3671" stroke="white"/>
<path d="M16.6986 1088.7C17.2994 1089.34 17.622 1090.05 17.622 1091.21C17.622 1093.25 16.1888 1095.08 14.1045 1095.99L13.5836 1095.19C15.529 1094.13 15.9094 1092.77 16.061 1091.91C15.7478 1092.07 15.3377 1092.13 14.9358 1092.09C13.8834 1091.99 13.0539 1091.13 13.0539 1090.05C13.0539 1089.51 13.269 1088.99 13.6519 1088.61C14.0348 1088.23 14.5541 1088.01 15.0956 1088.01C15.7215 1088.01 16.32 1088.3 16.6986 1088.7ZM10.8653 1088.7C11.4661 1089.34 11.7887 1090.05 11.7887 1091.21C11.7887 1093.25 10.3554 1095.08 8.27119 1095.99L7.75027 1095.19C9.69569 1094.13 10.076 1092.77 10.2277 1091.91C9.91444 1092.07 9.50436 1092.13 9.10244 1092.09C8.05011 1091.99 7.22119 1091.13 7.22119 1090.05C7.22119 1089.51 7.43629 1088.99 7.81918 1088.61C8.20207 1088.23 8.72137 1088.01 9.26286 1088.01C9.88877 1088.01 10.4873 1088.3 10.8659 1088.7H10.8653Z" fill="white"/>
<path d="M7.22119 1097.99H17.3671" stroke="white"/>
<rect x="0.421631" y="1116" width="24" height="24" rx="4" fill="#202020"/>
<path d="M19.7859 1133.73L19.7859 1122.27C19.7859 1121.37 19.0495 1120.64 18.1494 1120.64L6.69387 1120.64C5.7938 1120.64 5.05737 1121.37 5.05737 1122.27L5.05737 1133.73C5.05737 1134.63 5.7938 1135.36 6.69387 1135.36L18.1494 1135.36C19.0495 1135.36 19.7859 1134.63 19.7859 1133.73ZM6.69387 1133.73L6.69387 1122.27L18.1494 1122.27L18.1494 1133.73L6.69387 1133.73ZM14.0581 1123.91L14.0581 1125.55L8.33038 1125.55L8.33038 1123.91L14.0581 1123.91ZM16.5129 1127.18L16.5129 1128.82L8.33038 1128.82L8.33038 1127.18L16.5129 1127.18ZM11.6034 1130.45L11.6034 1132.09L8.33038 1132.09L8.33038 1130.45L11.6034 1130.45Z" fill="white"/>
<defs>
<clipPath id="clip0_824_5821">
<rect width="18" height="18" fill="white" transform="translate(3.42163 471)"/>
</clipPath>
<clipPath id="clip1_824_5821">
<rect width="13" height="13" fill="white" transform="translate(5.92163 1012.43)"/>
</clipPath>
</defs>
</svg>
