<svg width="25" height="1068" viewBox="0 0 25 1068" fill="none" xmlns="http://www.w3.org/2000/svg">
<rect x="0.421875" width="24" height="24" rx="4" fill="#202020"/>
<path d="M16.8907 9.24992C16.8907 7.17825 15.2865 5.58325 13.224 5.58325H7.49487V18.4166H13.9482C15.864 18.4166 17.349 16.8583 17.349 14.9424C17.349 13.5491 16.5607 12.3574 15.3782 11.8074C16.2674 11.1933 16.8907 10.1849 16.8907 9.24992ZM10.2449 7.87492H12.9949C13.7557 7.87492 14.3699 8.48909 14.3699 9.24992C14.3699 10.0108 13.7557 10.6249 12.9949 10.6249H10.2449V7.87492ZM13.4532 16.1249H10.2449V13.3749H13.4532C14.214 13.3749 14.8282 13.9891 14.8282 14.7499C14.8282 15.5108 14.214 16.1249 13.4532 16.1249Z" fill="white"/>
<rect x="0.421875" y="36" width="24" height="24" rx="4" fill="#202020"/>
<path d="M14.6719 54H8.67188V52.5H10.8671L12.4541 43.5H10.1719V42H16.1719V43.5H13.9766L12.3896 52.5H14.6719V54Z" fill="white"/>
<rect x="0.421875" y="72" width="24" height="24" rx="4" fill="#202020"/>
<path d="M7.75513 90H17.0885V88.6667H7.75513V90ZM12.4218 87.3333C13.4827 87.3333 14.5001 86.9119 15.2502 86.1618C16.0004 85.4116 16.4218 84.3942 16.4218 83.3333V78H14.7551V83.3333C14.7551 83.9522 14.5093 84.5457 14.0717 84.9832C13.6341 85.4208 13.0406 85.6667 12.4218 85.6667C11.803 85.6667 11.2095 85.4208 10.7719 84.9832C10.3343 84.5457 10.0885 83.9522 10.0885 83.3333V78H8.42179V83.3333C8.42179 84.3942 8.84322 85.4116 9.59337 86.1618C10.3435 86.9119 11.3609 87.3333 12.4218 87.3333Z" fill="white"/>
<rect x="0.421875" y="108" width="24" height="24" rx="4" fill="#202020"/>
<path d="M16.2874 121.5C16.4599 121.887 16.5469 122.318 16.5469 122.79C16.5469 123.797 16.1539 124.584 15.3686 125.15C14.5819 125.717 13.4966 126 12.1114 126C10.8814 126 9.66413 125.714 8.45888 125.142V123.45C9.59888 124.108 10.7651 124.437 11.9584 124.437C13.8716 124.437 14.8309 123.888 14.8376 122.789C14.8416 122.566 14.8006 122.345 14.7171 122.139C14.6336 121.932 14.5093 121.744 14.3516 121.587L14.2616 121.499H5.67188V119.999H19.1719V121.499H16.2874V121.5ZM13.2289 119.25H9.14363C9.01225 119.13 8.89154 118.999 8.78287 118.858C8.45887 118.44 8.29688 117.934 8.29688 117.339C8.29688 116.412 8.64637 115.624 9.34462 114.974C10.0444 114.325 11.1251 114 12.5884 114C13.6916 114 14.7476 114.246 15.7549 114.738V116.352C14.8549 115.837 13.8686 115.579 12.7954 115.579C10.9354 115.579 10.0061 116.166 10.0061 117.339C10.0061 117.654 10.1696 117.928 10.4966 118.163C10.8236 118.398 11.2271 118.585 11.7064 118.726C12.1714 118.861 12.6791 119.036 13.2289 119.25Z" fill="white"/>
<rect x="0.421875" y="144" width="24" height="24" rx="4" fill="#202020"/>
<path fill-rule="evenodd" clip-rule="evenodd" d="M11.0885 150.667H17.7552C17.932 150.667 18.1016 150.737 18.2266 150.862C18.3516 150.987 18.4219 151.157 18.4219 151.333C18.4219 151.51 18.3516 151.68 18.2266 151.805C18.1016 151.93 17.932 152 17.7552 152H11.0885C10.9117 152 10.7422 151.93 10.6171 151.805C10.4921 151.68 10.4219 151.51 10.4219 151.333C10.4219 151.157 10.4921 150.987 10.6171 150.862C10.7422 150.737 10.9117 150.667 11.0885 150.667ZM11.0885 155.333H17.7552C17.932 155.333 18.1016 155.404 18.2266 155.529C18.3516 155.654 18.4219 155.823 18.4219 156C18.4219 156.177 18.3516 156.346 18.2266 156.471C18.1016 156.596 17.932 156.667 17.7552 156.667H11.0885C10.9117 156.667 10.7422 156.596 10.6171 156.471C10.4921 156.346 10.4219 156.177 10.4219 156C10.4219 155.823 10.4921 155.654 10.6171 155.529C10.7422 155.404 10.9117 155.333 11.0885 155.333ZM11.0885 160H17.7552C17.932 160 18.1016 160.07 18.2266 160.195C18.3516 160.32 18.4219 160.49 18.4219 160.667C18.4219 160.843 18.3516 161.013 18.2266 161.138C18.1016 161.263 17.932 161.333 17.7552 161.333H11.0885C10.9117 161.333 10.7422 161.263 10.6171 161.138C10.4921 161.013 10.4219 160.843 10.4219 160.667C10.4219 160.49 10.4921 160.32 10.6171 160.195C10.7422 160.07 10.9117 160 11.0885 160ZM7.75521 152.667C7.40159 152.667 7.06245 152.526 6.8124 152.276C6.56235 152.026 6.42188 151.687 6.42188 151.333C6.42188 150.98 6.56235 150.641 6.8124 150.391C7.06245 150.14 7.40159 150 7.75521 150C8.10883 150 8.44797 150.14 8.69802 150.391C8.94807 150.641 9.08854 150.98 9.08854 151.333C9.08854 151.687 8.94807 152.026 8.69802 152.276C8.44797 152.526 8.10883 152.667 7.75521 152.667ZM7.75521 157.333C7.40159 157.333 7.06245 157.193 6.8124 156.943C6.56235 156.693 6.42188 156.354 6.42188 156C6.42188 155.646 6.56235 155.307 6.8124 155.057C7.06245 154.807 7.40159 154.667 7.75521 154.667C8.10883 154.667 8.44797 154.807 8.69802 155.057C8.94807 155.307 9.08854 155.646 9.08854 156C9.08854 156.354 8.94807 156.693 8.69802 156.943C8.44797 157.193 8.10883 157.333 7.75521 157.333ZM7.75521 162C7.40159 162 7.06245 161.86 6.8124 161.609C6.56235 161.359 6.42188 161.02 6.42188 160.667C6.42188 160.313 6.56235 159.974 6.8124 159.724C7.06245 159.474 7.40159 159.333 7.75521 159.333C8.10883 159.333 8.44797 159.474 8.69802 159.724C8.94807 159.974 9.08854 160.313 9.08854 160.667C9.08854 161.02 8.94807 161.359 8.69802 161.609C8.44797 161.86 8.10883 162 7.75521 162Z" fill="white"/>
<rect x="0.421875" y="180" width="24" height="24" rx="4" fill="#202020"/>
<path d="M7.7113 186.996C7.92502 187.046 8.07674 187.228 8.07674 187.441V191.089C8.07558 191.15 8.06241 191.21 8.03796 191.266C8.01352 191.322 7.97828 191.373 7.93427 191.415C7.89026 191.457 7.83833 191.491 7.78145 191.513C7.72457 191.535 7.66386 191.546 7.60278 191.545C7.54169 191.546 7.48098 191.535 7.4241 191.513C7.36722 191.491 7.31529 191.457 7.27128 191.415C7.22727 191.373 7.19203 191.322 7.16759 191.266C7.14314 191.21 7.12997 191.15 7.12882 191.089V188.734C6.9053 188.926 6.65818 189.088 6.39351 189.216C6.28171 189.271 6.15322 189.28 6.03481 189.242C5.9164 189.204 5.8172 189.122 5.75787 189.012C5.73043 188.959 5.71415 188.9 5.71003 188.839C5.70591 188.779 5.71402 188.719 5.73388 188.661C5.75374 188.604 5.78493 188.552 5.8256 188.507C5.86626 188.462 5.91554 188.426 5.97049 188.401C6.3614 188.213 6.66704 187.923 6.87855 187.669C6.9898 187.534 7.0898 187.391 7.17754 187.24C7.22797 187.146 7.30734 187.072 7.40364 187.028C7.49994 186.984 7.60794 186.973 7.7113 186.996ZM6.017 193.691C5.97324 193.65 5.93839 193.6 5.91457 193.544C5.89075 193.489 5.87847 193.429 5.87847 193.369C5.87847 193.309 5.89075 193.249 5.91457 193.194C5.93839 193.138 5.97324 193.088 6.017 193.047L6.01922 193.046V193.042L6.02365 193.04L6.0325 193.031C6.06865 192.998 6.10674 192.967 6.14657 192.938C6.56684 192.625 7.07671 192.456 7.60056 192.456H7.60831C7.96268 192.461 8.34805 192.549 8.65701 192.77C8.98368 193.002 9.19409 193.363 9.19409 193.823C9.19409 194.323 8.96486 194.672 8.65368 194.921C8.4167 195.113 8.11107 195.257 7.86301 195.374C7.82315 195.392 7.78549 195.411 7.74895 195.429C7.45328 195.57 7.23069 195.694 7.07345 195.861C7.00541 195.932 6.95032 196.014 6.91066 196.104H8.72123C8.84422 196.102 8.96301 196.149 9.05163 196.234C9.14025 196.319 9.19147 196.436 9.19409 196.559C9.19293 196.62 9.17976 196.681 9.15532 196.737C9.13087 196.793 9.09564 196.843 9.05162 196.886C9.00761 196.928 8.95568 196.961 8.8988 196.984C8.84192 197.006 8.78121 197.017 8.72013 197.016H6.35254C6.29146 197.017 6.23074 197.006 6.17387 196.984C6.11699 196.961 6.06506 196.928 6.02104 196.886C5.97703 196.843 5.94179 196.793 5.91735 196.737C5.89291 196.681 5.87973 196.62 5.87858 196.559C5.87858 195.995 6.06683 195.57 6.37247 195.248C6.65928 194.944 7.02804 194.755 7.32482 194.612C7.37244 194.59 7.41895 194.568 7.46214 194.546C7.71794 194.424 7.90509 194.336 8.04794 194.222C8.18083 194.114 8.24727 194.008 8.24727 193.823C8.24727 193.659 8.18415 193.568 8.09224 193.503C7.94344 193.411 7.77109 193.364 7.59613 193.368C7.26675 193.369 6.94756 193.482 6.69029 193.688L6.68475 193.693C6.59401 193.778 6.4746 193.824 6.35077 193.824C6.22695 193.823 6.108 193.775 6.01811 193.69L6.017 193.691ZM12.2139 189.2C11.9937 189.2 11.7824 189.287 11.6266 189.443C11.4709 189.599 11.3834 189.81 11.3834 190.03C11.3834 190.25 11.4709 190.462 11.6266 190.617C11.7824 190.773 11.9937 190.861 12.2139 190.861H18.3045C18.5248 190.861 18.7361 190.773 18.8918 190.617C19.0476 190.462 19.1351 190.25 19.1351 190.03C19.1351 189.81 19.0476 189.599 18.8918 189.443C18.7361 189.287 18.5248 189.2 18.3045 189.2H12.2139ZM12.2139 193.629C11.9937 193.629 11.7824 193.717 11.6266 193.872C11.4709 194.028 11.3834 194.239 11.3834 194.46C11.3834 194.68 11.4709 194.891 11.6266 195.047C11.7824 195.203 11.9937 195.29 12.2139 195.29H18.3045C18.5248 195.29 18.7361 195.203 18.8918 195.047C19.0476 194.891 19.1351 194.68 19.1351 194.46C19.1351 194.239 19.0476 194.028 18.8918 193.872C18.7361 193.717 18.5248 193.629 18.3045 193.629H12.2139Z" fill="white"/>
<rect y="216" width="24.8438" height="24" rx="4" fill="#202020"/>
<path d="M15.8438 234V232.5C15.8438 232.288 15.9158 232.109 16.0598 231.965C16.2038 231.821 16.3818 231.75 16.5938 231.75H18.0938V231H15.8438V230.25H18.0938C18.3062 230.25 18.4845 230.322 18.6285 230.466C18.7725 230.61 18.8442 230.788 18.8438 231V231.75C18.8438 231.962 18.7717 232.141 18.6277 232.285C18.4837 232.429 18.3057 232.5 18.0938 232.5H16.5938V233.25H18.8438V234H15.8438ZM6 232.5L9.46875 227.044L6.24375 222H8.23125L10.5562 225.75H10.6313L12.9375 222H14.9437L11.7 227.044L15.1875 232.5H13.1812L10.6313 228.431H10.5562L8.00625 232.5H6Z" fill="white"/>
<rect y="252" width="24.8438" height="24" rx="4" fill="#202020"/>
<path d="M15.8438 261.75V260.25C15.8438 260.038 15.9158 259.859 16.0598 259.715C16.2038 259.571 16.3818 259.5 16.5938 259.5H18.0938V258.75H15.8438V258H18.0938C18.3062 258 18.4845 258.072 18.6285 258.216C18.7725 258.36 18.8442 258.538 18.8438 258.75V259.5C18.8438 259.712 18.7717 259.891 18.6277 260.035C18.4837 260.179 18.3057 260.25 18.0938 260.25H16.5938V261H18.8438V261.75H15.8438ZM6 270L9.46875 264.544L6.24375 259.5H8.23125L10.5562 263.25H10.6313L12.9375 259.5H14.9437L11.7 264.544L15.1875 270H13.1812L10.6313 265.931H10.5562L8.00625 270H6Z" fill="white"/>
<rect x="0.421875" y="288" width="24" height="24" rx="4" fill="#202020"/>
<rect width="6.94823" height="1.44229" transform="matrix(-1 0 0 1 15.896 296.37)" fill="white"/>
<rect width="14.7599" height="1.44229" transform="matrix(-1 0 0 1 19.8018 299.279)" fill="white"/>
<rect width="6.94823" height="1.44229" transform="matrix(-1 0 0 1 15.896 302.188)" fill="white"/>
<rect x="0.421875" y="324" width="24" height="24" rx="4" fill="#202020"/>
<rect width="6.94823" height="1.44229" transform="matrix(-1 0 0 1 19.8018 332.37)" fill="white"/>
<rect width="14.7599" height="1.44229" transform="matrix(-1 0 0 1 19.8018 335.279)" fill="white"/>
<rect width="6.94823" height="1.44229" transform="matrix(-1 0 0 1 19.8018 338.188)" fill="white"/>
<rect x="0.421875" y="360" width="24" height="24" rx="4" fill="#202020"/>
<rect x="5.04199" y="368.37" width="6.94823" height="1.44229" fill="white"/>
<rect x="5.04199" y="371.279" width="14.7599" height="1.44229" fill="white"/>
<rect x="5.04199" y="374.188" width="6.94823" height="1.44229" fill="white"/>
<rect x="0.421875" y="396" width="24" height="24" rx="4" fill="#202020"/>
<rect x="5.04199" y="404.37" width="14.7599" height="1.44229" fill="white"/>
<rect x="5.04199" y="407.279" width="14.7599" height="1.44229" fill="white"/>
<rect x="5.04199" y="410.188" width="14.7599" height="1.44229" fill="white"/>
<rect x="0.421875" y="432" width="24" height="24" rx="4" fill="#202020"/>
<path d="M16.1426 447.975C15.9975 448.112 15.8162 448.181 15.5987 448.181C15.3808 448.181 15.1926 448.106 15.0343 447.956C14.8759 447.806 14.7968 447.628 14.7968 447.421C14.7968 447.215 14.8759 447.037 15.0343 446.887L18.102 443.981L15.0145 441.056C14.8693 440.919 14.7999 440.747 14.8063 440.54C14.8131 440.334 14.8891 440.162 15.0343 440.025C15.1794 439.887 15.3641 439.819 15.5884 439.819C15.8128 439.819 15.9975 439.887 16.1426 440.025L19.7843 443.475C19.9426 443.625 20.0218 443.8 20.0218 444C20.0218 444.2 19.9426 444.375 19.7843 444.525L16.1426 447.975ZM8.70094 447.975L5.05928 444.525C4.90094 444.375 4.82178 444.2 4.82178 444C4.82178 443.8 4.90094 443.625 5.05928 443.475L8.70094 440.025C8.84608 439.887 9.03081 439.815 9.25511 439.809C9.47942 439.803 9.67074 439.875 9.82907 440.025C9.9874 440.175 10.0666 440.353 10.0666 440.559C10.0666 440.765 9.9874 440.944 9.82907 441.094L6.74157 444.019L9.82907 446.944C9.97421 447.081 10.0436 447.253 10.0373 447.459C10.0304 447.665 9.95442 447.837 9.80928 447.975C9.66414 448.112 9.47942 448.181 9.25511 448.181C9.03081 448.181 8.84608 448.112 8.70094 447.975Z" fill="white"/>
<rect x="0.421875" y="468" width="24" height="24" rx="4" fill="#202020"/>
<g clip-path="url(#clip0_824_5821)">
<path d="M13.4648 474.091C13.6606 474.125 13.8346 474.236 13.9486 474.399C14.0625 474.562 14.107 474.764 14.0723 474.96L12.2498 485.3C12.2153 485.496 12.1044 485.67 11.9414 485.784C11.7785 485.899 11.5769 485.943 11.3809 485.909C11.185 485.874 11.0108 485.763 10.8967 485.6C10.7825 485.437 10.7378 485.236 10.7723 485.04L12.5948 474.699C12.612 474.602 12.6482 474.509 12.7012 474.426C12.7542 474.343 12.8231 474.271 12.9039 474.215C12.9847 474.158 13.0759 474.119 13.1721 474.097C13.2683 474.076 13.3678 474.073 13.4648 474.091ZM8.82682 476.287C8.96743 476.428 9.04641 476.619 9.04641 476.818C9.04641 477.017 8.96743 477.207 8.82682 477.348L6.17632 480L8.82757 482.651C8.89726 482.721 8.95254 482.803 8.99027 482.894C9.028 482.985 9.04744 483.083 9.04748 483.182C9.04751 483.28 9.02814 483.378 8.99048 483.469C8.95281 483.56 8.89758 483.642 8.82795 483.712C8.75832 483.782 8.67564 483.837 8.58464 483.875C8.49364 483.912 8.3961 483.932 8.29759 483.932C8.19908 483.932 8.10152 483.913 8.0105 483.875C7.91947 483.837 7.83676 483.782 7.76707 483.712L4.58482 480.53C4.44422 480.39 4.36523 480.199 4.36523 480C4.36523 479.801 4.44422 479.61 4.58482 479.47L7.76707 476.287C7.90772 476.147 8.09845 476.068 8.29732 476.068C8.4962 476.068 8.68618 476.147 8.82682 476.287ZM17.0768 476.287L20.2591 479.47C20.3997 479.61 20.4787 479.801 20.4787 480C20.4787 480.199 20.3997 480.39 20.2591 480.53L17.0768 483.712C17.0076 483.783 16.9249 483.84 16.8334 483.88C16.7419 483.919 16.6435 483.94 16.5439 483.941C16.4443 483.941 16.3455 483.922 16.2534 483.885C16.1612 483.847 16.0774 483.791 16.007 483.721C15.9366 483.651 15.8809 483.567 15.8432 483.475C15.8055 483.382 15.7865 483.284 15.7874 483.184C15.7883 483.085 15.8089 482.986 15.8482 482.895C15.8876 482.803 15.9447 482.72 16.0163 482.651L18.6683 480L16.0171 477.348C15.9454 477.279 15.8883 477.196 15.849 477.104C15.8097 477.013 15.789 476.915 15.7881 476.815C15.7873 476.715 15.8062 476.617 15.844 476.524C15.8817 476.432 15.9374 476.349 16.0078 476.278C16.0782 476.208 16.1619 476.152 16.2541 476.114C16.3463 476.077 16.445 476.058 16.5446 476.058C16.6442 476.059 16.7426 476.08 16.8341 476.119C16.9256 476.159 17.0076 476.216 17.0768 476.287Z" fill="white"/>
</g>
<rect x="0.421875" y="504" width="24" height="24" rx="4" fill="#202020"/>
<path d="M7.17188 521.25V520.083H17.6719V521.25H7.17188ZM11.8385 518.917V517.75H17.6719V518.917H11.8385ZM9.50521 518.333L7.17188 516L9.50521 513.667V518.333ZM11.8385 516.583V515.417H17.6719V516.583H11.8385ZM11.8385 514.25V513.083H17.6719V514.25H11.8385ZM7.17188 511.917V510.75H17.6719V511.917H7.17188Z" fill="white"/>
<rect x="0.421875" y="540" width="24" height="24" rx="4" fill="#202020"/>
<path d="M17.6719 557.25V556.083H7.17188V557.25H17.6719ZM13.0052 554.917V553.75H7.17188V554.917H13.0052ZM15.3385 554.333L17.6719 552L15.3385 549.667V554.333ZM13.0052 552.583V551.417H7.17188V552.583H13.0052ZM13.0052 550.25V549.083H7.17188V550.25H13.0052ZM17.6719 547.917V546.75H7.17188V547.917H17.6719Z" fill="white"/>
<rect x="0.421875" y="576" width="24" height="24" rx="4" fill="#202020"/>
<path d="M11.5993 588.822C11.8385 589.05 11.8385 589.423 11.5993 589.651C11.3718 589.878 10.9985 589.878 10.771 589.651C10.2246 589.104 9.91777 588.362 9.91777 587.589C9.91777 586.815 10.2246 586.074 10.771 585.527L12.836 583.462C13.3832 582.915 14.1248 582.608 14.8981 582.608C15.6713 582.608 16.413 582.915 16.9602 583.462C17.5065 584.009 17.8134 584.75 17.8134 585.524C17.8134 586.297 17.5065 587.039 16.9602 587.586L16.091 588.455C16.0968 587.977 16.021 587.498 15.8577 587.043L16.1318 586.763C16.2954 586.602 16.4252 586.409 16.5138 586.197C16.6024 585.984 16.648 585.757 16.648 585.527C16.648 585.297 16.6024 585.069 16.5138 584.857C16.4252 584.644 16.2954 584.452 16.1318 584.29C15.9701 584.126 15.7775 583.997 15.5652 583.908C15.3529 583.819 15.1252 583.774 14.8952 583.774C14.6652 583.774 14.4374 583.819 14.2251 583.908C14.0129 583.997 13.8203 584.126 13.6585 584.29L11.5993 586.349C11.4358 586.511 11.306 586.703 11.2174 586.916C11.1288 587.128 11.0832 587.356 11.0832 587.586C11.0832 587.816 11.1288 588.044 11.2174 588.256C11.306 588.468 11.4358 588.661 11.5993 588.822ZM13.2443 586.349C13.4718 586.122 13.8452 586.122 14.0727 586.349C14.619 586.896 14.9259 587.638 14.9259 588.411C14.9259 589.184 14.619 589.926 14.0727 590.473L12.0077 592.538C11.4605 593.085 10.7188 593.392 9.94559 593.392C9.17234 593.392 8.43069 593.085 7.88351 592.538C7.33715 591.991 7.03027 591.249 7.03027 590.476C7.03027 589.703 7.33715 588.961 7.88351 588.414L8.75268 587.545C8.74684 588.023 8.82268 588.502 8.98601 588.962L8.71184 589.237C8.54831 589.398 8.41849 589.591 8.32989 589.803C8.24129 590.016 8.19567 590.243 8.19567 590.473C8.19567 590.703 8.24129 590.931 8.32989 591.143C8.41849 591.356 8.54831 591.548 8.71184 591.71C8.87361 591.873 9.0662 592.003 9.27848 592.092C9.49075 592.181 9.71849 592.226 9.94851 592.226C10.1785 592.226 10.4063 592.181 10.6185 592.092C10.8308 592.003 11.0234 591.873 11.1852 591.71L13.2443 589.651C13.4079 589.489 13.5377 589.296 13.6263 589.084C13.7149 588.872 13.7605 588.644 13.7605 588.414C13.7605 588.184 13.7149 587.956 13.6263 587.744C13.5377 587.532 13.4079 587.339 13.2443 587.177C13.1877 587.124 13.1425 587.06 13.1117 586.989C13.0808 586.918 13.0649 586.841 13.0649 586.763C13.0649 586.686 13.0808 586.609 13.1117 586.538C13.1425 586.466 13.1877 586.402 13.2443 586.349Z" fill="white"/>
<rect x="0.421875" y="612" width="24" height="24" rx="4" fill="#202020"/>
<path d="M11.6051 624.817C11.6894 624.929 11.7303 625.068 11.7203 625.208C11.7103 625.348 11.6502 625.48 11.5509 625.579C11.4516 625.678 11.3198 625.739 11.1798 625.749C11.0397 625.759 10.9008 625.718 10.7884 625.633C10.5094 625.371 10.287 625.055 10.135 624.704C9.983 624.353 9.90457 623.974 9.90457 623.592C9.90457 623.209 9.983 622.83 10.135 622.479C10.287 622.128 10.5094 621.812 10.7884 621.55L12.8301 619.45C13.3851 618.912 14.1279 618.611 14.9009 618.611C15.674 618.611 16.4167 618.912 16.9718 619.45C17.5099 620.005 17.8108 620.748 17.8108 621.521C17.8108 622.294 17.5099 623.037 16.9718 623.592L16.0968 624.467C16.1092 623.989 16.03 623.514 15.8634 623.067L16.1551 622.775C16.4666 622.432 16.6392 621.985 16.6392 621.521C16.6392 621.057 16.4666 620.61 16.1551 620.267C15.8117 619.955 15.3646 619.783 14.9009 619.783C14.4373 619.783 13.9902 619.955 13.6468 620.267L11.6051 622.367C11.4392 622.525 11.3071 622.715 11.2169 622.925C11.1266 623.136 11.0801 623.363 11.0801 623.592C11.0801 623.821 11.1266 624.047 11.2169 624.258C11.3071 624.469 11.4392 624.659 11.6051 624.817ZM14.8718 624.992C14.9729 624.521 14.9508 624.032 14.8078 623.572C14.6647 623.112 14.4055 622.697 14.0551 622.367C13.9428 622.282 13.8038 622.242 13.6637 622.251C13.5237 622.261 13.3919 622.322 13.2926 622.421C13.1933 622.52 13.1332 622.652 13.1232 622.792C13.1133 622.932 13.1542 623.071 13.2384 623.183C13.4043 623.341 13.5364 623.531 13.6267 623.742C13.7169 623.953 13.7634 624.179 13.7634 624.408C13.7634 624.637 13.7169 624.864 13.6267 625.075C13.5364 625.285 13.4043 625.475 13.2384 625.633L11.1968 627.733C10.8533 628.045 10.4063 628.217 9.9426 628.217C9.47893 628.217 9.03186 628.045 8.68843 627.733C8.37691 627.39 8.20434 626.943 8.20434 626.479C8.20434 626.016 8.37691 625.568 8.68843 625.225L8.9801 624.992C8.81798 624.523 8.73901 624.029 8.74677 623.533L7.87177 624.408C7.33365 624.963 7.03271 625.706 7.03271 626.479C7.03271 627.252 7.33365 627.995 7.87177 628.55C8.42681 629.088 9.16952 629.389 9.9426 629.389C10.7157 629.389 11.4584 629.088 12.0134 628.55L13.0634 627.5C13.1526 626.971 13.362 626.47 13.6756 626.035C13.9891 625.6 14.3984 625.243 14.8718 624.992ZM17.7301 626.042L16.5051 627.267L15.2801 626.042L14.4634 626.858L15.6884 628.083L14.4634 629.308L15.2801 630.125L16.5051 628.9L17.7301 630.125L18.5468 629.308L17.3218 628.083L18.5468 626.858L17.7301 626.042Z" fill="white"/>
<rect x="0.421875" y="648" width="24" height="24" rx="4" fill="#202020"/>
<path d="M16.5052 655.917V664.083H8.33854V655.917H16.5052ZM16.5052 654.75H8.33854C7.69687 654.75 7.17188 655.275 7.17188 655.917V664.083C7.17188 664.725 7.69687 665.25 8.33854 665.25H16.5052C17.1469 665.25 17.6719 664.725 17.6719 664.083V655.917C17.6719 655.275 17.1469 654.75 16.5052 654.75ZM13.6702 659.918L11.9202 662.176L10.6719 660.665L8.92187 662.917H15.9219L13.6702 659.918Z" fill="white"/>
<rect x="0.421875" y="684" width="24" height="24" rx="4" fill="#202020"/>
<path d="M7.17188 701.25V690.75H17.6719V701.25H7.17188ZM8.33854 694.25H16.5052V691.917H8.33854V694.25ZM11.4448 697.167H13.399V695.417H11.4448V697.167ZM11.4448 700.083H13.399V698.333H11.4448V700.083ZM8.33854 697.167H10.2781V695.417H8.33854V697.167ZM14.5656 697.167H16.5052V695.417H14.5656V697.167ZM8.33854 700.083H10.2781V698.333H8.33854V700.083ZM14.5656 700.083H16.5052V698.333H14.5656V700.083Z" fill="white"/>
<rect x="0.421875" y="720" width="24" height="24" rx="4" fill="#202020"/>
<path d="M7.42188 737.25V735.25H17.4219V737.25H7.42188ZM9.17188 733.75L11.7969 726.75H13.0469L15.6719 733.75H14.4719L13.8469 731.95H11.0219L10.3719 733.75H9.17188ZM11.3719 730.95H13.4719L12.4469 728.05H12.3969L11.3719 730.95Z" fill="white"/>
<rect x="0.421875" y="756" width="24" height="24" rx="4" fill="#202020"/>
<path opacity="0.5" d="M15.6694 762.556C15.9015 762.556 16.1241 762.637 16.2882 762.783C16.4522 762.929 16.5444 763.127 16.5444 763.333C16.5444 763.54 16.4522 763.737 16.2882 763.883C16.1241 764.029 15.9015 764.111 15.6694 764.111H8.66943C8.43737 764.111 8.21481 764.029 8.05072 763.883C7.88662 763.737 7.79443 763.54 7.79443 763.333C7.79443 763.127 7.88662 762.929 8.05072 762.783C8.21481 762.637 8.43737 762.556 8.66943 762.556H15.6694ZM16.5444 766.444C16.5444 766.651 16.4522 766.849 16.2882 766.994C16.1241 767.14 15.9015 767.222 15.6694 767.222H8.66943C8.43737 767.222 8.21481 767.14 8.05072 766.994C7.88662 766.849 7.79443 766.651 7.79443 766.444C7.79443 766.238 7.88662 766.04 8.05072 765.894C8.21481 765.749 8.43737 765.667 8.66943 765.667H15.6694C15.9015 765.667 16.1241 765.749 16.2882 765.894C16.4522 766.04 16.5444 766.238 16.5444 766.444ZM15.6694 773.444C15.9015 773.444 16.1241 773.362 16.2882 773.217C16.4522 773.071 16.5444 772.873 16.5444 772.667C16.5444 772.46 16.4522 772.263 16.2882 772.117C16.1241 771.971 15.9015 771.889 15.6694 771.889H8.66943C8.43737 771.889 8.21481 771.971 8.05072 772.117C7.88662 772.263 7.79443 772.46 7.79443 772.667C7.79443 772.873 7.88662 773.071 8.05072 773.217C8.21481 773.362 8.43737 773.444 8.66943 773.444H15.6694Z" fill="white"/>
<path fill-rule="evenodd" clip-rule="evenodd" d="M20.0444 769.555C20.0444 769.762 19.9522 769.96 19.7882 770.105C19.6241 770.251 19.4015 770.333 19.1694 770.333H5.16943C4.93737 770.333 4.71481 770.251 4.55072 770.105C4.38662 769.96 4.29443 769.762 4.29443 769.555C4.29443 769.349 4.38662 769.151 4.55072 769.006C4.71481 768.86 4.93737 768.778 5.16943 768.778H19.1694C19.4015 768.778 19.6241 768.86 19.7882 769.006C19.9522 769.151 20.0444 769.349 20.0444 769.555Z" fill="white"/>
<rect x="0.421875" y="792" width="24" height="24" rx="4" fill="#202020"/>
<path d="M10.0886 808.083C9.92332 808.083 9.78468 808.027 9.67268 807.915C9.56068 807.803 9.50488 807.665 9.50527 807.5C9.50527 807.335 9.56127 807.196 9.67327 807.084C9.78527 806.972 9.92371 806.916 10.0886 806.917H13.6469C14.2594 806.917 14.7918 806.722 15.2441 806.333C15.6964 805.944 15.9223 805.458 15.9219 804.875C15.9219 804.292 15.6958 803.806 15.2435 803.417C14.7912 803.028 14.259 802.833 13.6469 802.833H9.97193L11.0803 803.942C11.1872 804.049 11.2407 804.185 11.2407 804.35C11.2407 804.515 11.1872 804.651 11.0803 804.758C10.9733 804.865 10.8372 804.919 10.6719 804.919C10.5067 804.919 10.3705 804.865 10.2636 804.758L8.1636 802.658C8.10527 802.6 8.06385 802.537 8.03935 802.469C8.01485 802.401 8.00279 802.328 8.00318 802.25C8.00318 802.172 8.01543 802.099 8.03993 802.031C8.06443 801.963 8.10565 801.9 8.1636 801.842L10.2636 799.742C10.3705 799.635 10.5067 799.581 10.6719 799.581C10.8372 799.581 10.9733 799.635 11.0803 799.742C11.1872 799.849 11.2407 799.985 11.2407 800.15C11.2407 800.315 11.1872 800.451 11.0803 800.558L9.97193 801.667H13.6469C14.59 801.667 15.3995 801.973 16.0754 802.585C16.7512 803.198 17.089 803.961 17.0886 804.875C17.0886 805.789 16.7507 806.552 16.0748 807.165C15.3989 807.777 14.5896 808.083 13.6469 808.083H10.0886Z" fill="white"/>
<rect x="0.421875" y="828" width="24" height="24" rx="4" fill="#202020"/>
<path d="M14.7552 844.083C14.9204 844.083 15.0591 844.027 15.1711 843.915C15.2831 843.803 15.3389 843.665 15.3385 843.5C15.3385 843.335 15.2825 843.196 15.1705 843.084C15.0585 842.972 14.92 842.916 14.7552 842.917H11.1968C10.5843 842.917 10.0519 842.722 9.59965 842.333C9.14737 841.944 8.92143 841.458 8.92182 840.875C8.92182 840.292 9.14796 839.806 9.60023 839.417C10.0525 839.028 10.5847 838.833 11.1968 838.833H14.8718L13.7635 839.942C13.6565 840.049 13.6031 840.185 13.6031 840.35C13.6031 840.515 13.6565 840.651 13.7635 840.758C13.8704 840.865 14.0065 840.919 14.1718 840.919C14.3371 840.919 14.4732 840.865 14.5802 840.758L16.6802 838.658C16.7385 838.6 16.7799 838.537 16.8044 838.469C16.8289 838.401 16.841 838.328 16.8406 838.25C16.8406 838.172 16.8283 838.099 16.8038 838.031C16.7793 837.963 16.7381 837.9 16.6802 837.842L14.5802 835.742C14.4732 835.635 14.3371 835.581 14.1718 835.581C14.0065 835.581 13.8704 835.635 13.7635 835.742C13.6565 835.849 13.6031 835.985 13.6031 836.15C13.6031 836.315 13.6565 836.451 13.7635 836.558L14.8718 837.667H11.1968C10.2538 837.667 9.44429 837.973 8.7684 838.585C8.09251 839.198 7.75476 839.961 7.75515 840.875C7.75515 841.789 8.0931 842.552 8.76898 843.165C9.44487 843.777 10.2542 844.083 11.1968 844.083H14.7552Z" fill="white"/>
<rect x="0.421875" y="864" width="24" height="24" rx="4" fill="#202020"/>
<path d="M16.7484 872.896C17.3492 873.534 17.6718 874.25 17.6718 875.41C17.6718 877.452 16.2386 879.282 14.1543 880.187L13.6334 879.383C15.5788 878.33 15.9592 876.965 16.1108 876.104C15.7976 876.266 15.3875 876.323 14.9856 876.285C13.9332 876.188 13.1037 875.324 13.1037 874.25C13.1037 873.709 13.3188 873.189 13.7017 872.806C14.0846 872.423 14.6039 872.208 15.1454 872.208C15.7713 872.208 16.3698 872.494 16.7484 872.896ZM10.9151 872.896C11.5159 873.534 11.8385 874.25 11.8385 875.41C11.8385 877.452 10.4052 879.282 8.321 880.187L7.80008 879.383C9.7455 878.33 10.1258 876.965 10.2775 876.104C9.96425 876.266 9.55416 876.323 9.15225 876.285C8.09991 876.188 7.271 875.324 7.271 874.25C7.271 873.709 7.4861 873.189 7.86899 872.806C8.25187 872.423 8.77118 872.208 9.31266 872.208C9.93858 872.208 10.5371 872.494 10.9157 872.896H10.9151Z" fill="white"/>
<rect x="0.421875" y="900" width="24" height="24" rx="4" fill="#202020"/>
<path d="M17.1719 917.25L13.2344 913.575C12.9219 913.808 12.5625 913.993 12.1562 914.129C11.75 914.265 11.3177 914.333 10.8594 914.333C9.72396 914.333 8.76313 913.966 7.97688 913.233C7.19021 912.498 6.79688 911.601 6.79688 910.542C6.79688 909.482 7.19021 908.585 7.97688 907.851C8.76313 907.117 9.72396 906.75 10.8594 906.75C11.9948 906.75 12.9558 907.117 13.7425 907.851C14.5287 908.585 14.9219 909.482 14.9219 910.542C14.9219 910.969 14.849 911.373 14.7031 911.752C14.5573 912.131 14.3594 912.467 14.1094 912.758L18.0469 916.433L17.1719 917.25ZM10.8594 913.167C11.6406 913.167 12.3048 912.912 12.8519 912.401C13.3985 911.891 13.6719 911.271 13.6719 910.542C13.6719 909.812 13.3985 909.193 12.8519 908.682C12.3048 908.172 11.6406 907.917 10.8594 907.917C10.0781 907.917 9.41396 908.172 8.86687 908.682C8.32021 909.193 8.04688 909.812 8.04688 910.542C8.04688 911.271 8.32021 911.891 8.86687 912.401C9.41396 912.912 10.0781 913.167 10.8594 913.167Z" fill="white"/>
<rect x="0.421875" y="936" width="24" height="24" rx="4" fill="#202020"/>
<path d="M5.75513 942.667C5.75513 941.933 6.35513 941.333 7.08846 941.333H9.75513V942.667H7.08846V945.333H5.75513V942.667ZM19.0885 953.333C19.0885 954.073 18.4951 954.667 17.7551 954.667H15.0885V953.333H17.7551V950.667H19.0885V953.333ZM7.08846 954.667C6.73484 954.667 6.3957 954.526 6.14565 954.276C5.8956 954.026 5.75513 953.687 5.75513 953.333V950.667H7.08846V953.333H9.75513V954.667H7.08846ZM17.7551 941.333C18.1087 941.333 18.4479 941.474 18.6979 941.724C18.948 941.974 19.0885 942.313 19.0885 942.667V945.333H17.7551V942.667H15.0885V941.333H17.7551ZM10.4218 944.667V946H11.7551V951.333H13.0885V946H14.4218V944.667H10.4218Z" fill="white"/>
<rect x="0.421875" y="972" width="24" height="24" rx="4" fill="#202020"/>
<path d="M8.00529 982.583C7.76085 982.583 7.57196 982.498 7.43863 982.326C7.30529 982.155 7.27196 981.951 7.33863 981.716C7.63863 980.724 8.18863 979.912 8.98863 979.28C9.78863 978.649 10.7108 978.333 11.7553 978.333C12.4108 978.333 13.0248 978.466 13.5973 978.732C14.1697 978.998 14.6668 979.361 15.0886 979.821V979.042C15.0886 978.841 15.1526 978.673 15.2806 978.537C15.4086 978.401 15.5668 978.333 15.7553 978.333C15.9442 978.333 16.1026 978.401 16.2306 978.537C16.3586 978.673 16.4224 978.841 16.422 979.042V981.875C16.422 982.076 16.358 982.244 16.23 982.38C16.102 982.516 15.9437 982.584 15.7553 982.583H13.0886C12.8997 982.583 12.7413 982.515 12.6133 982.379C12.4853 982.243 12.4215 982.075 12.422 981.875C12.422 981.674 12.486 981.506 12.614 981.37C12.742 981.234 12.9002 981.166 13.0886 981.167H14.422C14.0997 980.742 13.7135 980.399 13.2633 980.14C12.8131 979.88 12.3104 979.75 11.7553 979.75C11.0331 979.75 10.3831 979.968 9.80529 980.405C9.22751 980.842 8.82751 981.409 8.60529 982.105C8.56085 982.247 8.48307 982.362 8.37196 982.451C8.26085 982.54 8.13863 982.584 8.00529 982.583ZM17.022 989.879L14.5553 987.258C14.1553 987.577 13.7193 987.822 13.2473 987.994C12.7753 988.165 12.278 988.251 11.7553 988.25C11.0997 988.25 10.4857 988.117 9.91329 987.851C9.34085 987.585 8.84374 987.222 8.42196 986.763V987.542C8.42196 987.742 8.35796 987.911 8.22996 988.047C8.10196 988.183 7.94374 988.251 7.75529 988.25C7.5664 988.25 7.40796 988.182 7.27996 988.046C7.15196 987.91 7.08818 987.742 7.08863 987.542V984.708C7.08863 984.508 7.15263 984.339 7.28063 984.203C7.40863 984.067 7.56685 984 7.75529 984H10.422C10.6108 984 10.7693 984.068 10.8973 984.204C11.0253 984.34 11.0891 984.508 11.0886 984.708C11.0886 984.909 11.0246 985.077 10.8966 985.213C10.7686 985.349 10.6104 985.417 10.422 985.417H9.08863C9.41085 985.842 9.79707 986.184 10.2473 986.444C10.6975 986.704 11.2002 986.833 11.7553 986.833C12.4775 986.833 13.1275 986.615 13.7053 986.178C14.2831 985.741 14.6831 985.175 14.9053 984.478C14.9497 984.337 15.0275 984.221 15.1386 984.133C15.2497 984.044 15.372 984 15.5053 984C15.7497 984 15.9386 984.089 16.072 984.266C16.2053 984.443 16.2386 984.649 16.172 984.885C16.0942 985.133 15.9997 985.372 15.8886 985.602C15.7775 985.832 15.6442 986.054 15.4886 986.267L17.9553 988.888C18.0775 989.017 18.1386 989.183 18.1386 989.383C18.1386 989.584 18.0775 989.749 17.9553 989.879C17.8331 990.009 17.6775 990.074 17.4886 990.074C17.2997 990.074 17.1442 990.009 17.022 989.879Z" fill="white"/>
<rect x="0.421875" y="1008" width="24" height="24" rx="4" fill="#202020"/>
<g clip-path="url(#clip1_824_5821)">
<path d="M7.10254 1012.43V1015.97H7.69414C7.69414 1015.38 7.69414 1014.2 8.28574 1013.61C8.8748 1013.02 9.46641 1013.02 10.058 1013.02H11.2387V1023.06C11.2387 1023.95 10.9441 1024.83 10.058 1024.83H9.4791L9.46641 1025.42H15.3748V1024.83H14.7832C13.8971 1024.83 13.6025 1023.95 13.6025 1023.06V1013.02H14.7832C15.3748 1013.02 15.9639 1013.02 16.5555 1013.61C17.1471 1014.2 17.1471 1015.38 17.1471 1015.98H17.7387V1012.43H7.10254Z" fill="white"/>
</g>
<path d="M17.1857 1022.84C17.2858 1022.88 17.3767 1022.94 17.4533 1023.02L17.1857 1022.84ZM17.1857 1022.84C17.0855 1022.8 16.9781 1022.78 16.8697 1022.78M17.1857 1022.84L16.8697 1022.78M16.8697 1022.78C16.7612 1022.78 16.6539 1022.8 16.5537 1022.84M16.8697 1022.78L16.5537 1022.84M16.5537 1022.84C16.4537 1022.88 16.3629 1022.94 16.2864 1023.02M16.5537 1022.84L16.2864 1023.02M16.2864 1023.02C16.2862 1023.02 16.2861 1023.02 16.2859 1023.02M16.2864 1023.02L16.2859 1023.02M16.2859 1023.02L15.0459 1024.26L13.8047 1023.02C13.7281 1022.94 13.6372 1022.88 13.537 1022.84C13.4369 1022.8 13.3297 1022.77 13.2213 1022.77C13.113 1022.77 13.0057 1022.8 12.9056 1022.84C12.8055 1022.88 12.7145 1022.94 12.6379 1023.02C12.5613 1023.09 12.5005 1023.18 12.459 1023.28C12.4176 1023.38 12.3962 1023.49 12.3962 1023.6C12.3962 1023.71 12.4176 1023.81 12.459 1023.91C12.5005 1024.01 12.5613 1024.11 12.6379 1024.18L13.8787 1025.42L12.6379 1026.66C12.5613 1026.74 12.5005 1026.83 12.459 1026.93C12.4176 1027.03 12.3962 1027.14 12.3962 1027.25C12.3962 1027.36 12.4176 1027.46 12.459 1027.56C12.5005 1027.66 12.5613 1027.75 12.6379 1027.83C12.7145 1027.91 12.8055 1027.97 12.9056 1028.01C13.0057 1028.05 13.113 1028.07 13.2213 1028.07C13.3297 1028.07 13.4369 1028.05 13.537 1028.01C13.6372 1027.97 13.7281 1027.91 13.8047 1027.83L15.0455 1026.59L16.2863 1027.83C16.3629 1027.91 16.4539 1027.97 16.554 1028.01C16.6541 1028.05 16.7613 1028.07 16.8697 1028.07C16.978 1028.07 17.0853 1028.05 17.1854 1028.01C17.2855 1027.97 17.3765 1027.91 17.4531 1027.83C17.5297 1027.75 17.5905 1027.66 17.632 1027.56C17.6734 1027.46 17.6948 1027.36 17.6948 1027.25C17.6948 1027.14 17.6734 1027.03 17.632 1026.93C17.5905 1026.83 17.5297 1026.74 17.4531 1026.66L16.2123 1025.42L17.4531 1024.18C17.7721 1023.86 17.7723 1023.34 17.4535 1023.02H16.2859Z" fill="white" stroke="#202020"/>
<rect x="0.421875" y="1044" width="24" height="24" rx="4" fill="#202020"/>
<rect x="3.6582" y="1047.24" width="17.5272" height="17.5272" rx="2" fill="#202020"/>
<path d="M9.17188 1059.5L11.7969 1052.5H13.0469L15.6719 1059.5H14.4719L13.8469 1057.7H11.0219L10.3719 1059.5H9.17188ZM11.3719 1056.7H13.4719L12.4469 1053.8H12.3969L11.3719 1056.7Z" fill="white"/>
<defs>
<clipPath id="clip0_824_5821">
<rect width="18" height="18" fill="white" transform="translate(3.42188 471)"/>
</clipPath>
<clipPath id="clip1_824_5821">
<rect width="13" height="13" fill="white" transform="translate(5.92188 1012.43)"/>
</clipPath>
</defs>
</svg>
