<svg width="105" height="25" viewBox="0 0 105 25" fill="none" xmlns="http://www.w3.org/2000/svg">
<path d="M14.9171 17.0668C14.1371 17.0668 13.4711 16.8888 12.9191 16.5328C12.3711 16.1768 11.9511 15.6648 11.6591 14.9968C11.3711 14.3288 11.2271 13.5228 11.2271 12.5788C11.2271 11.6388 11.3711 10.8388 11.6591 10.1788C11.9471 9.51878 12.3651 9.01678 12.9131 8.67278C13.4651 8.32478 14.1331 8.15078 14.9171 8.15078C15.5291 8.15078 16.0711 8.27878 16.5431 8.53478C17.0151 8.78678 17.3951 9.12478 17.6831 9.54878C17.9711 9.97278 18.1411 10.4388 18.1931 10.9468H17.0111C16.9471 10.6068 16.8251 10.2988 16.6451 10.0228C16.4651 9.74678 16.2291 9.52678 15.9371 9.36278C15.6451 9.19878 15.2951 9.11678 14.8871 9.11678C14.3631 9.11678 13.9191 9.24078 13.5551 9.48878C13.1951 9.73278 12.9211 10.1108 12.7331 10.6228C12.5491 11.1348 12.4571 11.7908 12.4571 12.5908C12.4571 13.7988 12.6631 14.6868 13.0751 15.2548C13.4911 15.8188 14.0951 16.1008 14.8871 16.1008C15.2951 16.1008 15.6451 16.0148 15.9371 15.8428C16.2291 15.6708 16.4651 15.4408 16.6451 15.1528C16.8251 14.8648 16.9471 14.5528 17.0111 14.2168H18.1931C18.1491 14.5848 18.0491 14.9408 17.8931 15.2848C17.7411 15.6248 17.5311 15.9288 17.2631 16.1968C16.9951 16.4648 16.6651 16.6768 16.2731 16.8328C15.8851 16.9888 15.4331 17.0668 14.9171 17.0668ZM22.0388 17.0668C21.7148 17.0628 21.4088 17.0168 21.1208 16.9288C20.8368 16.8368 20.5848 16.7028 20.3648 16.5268C20.1448 16.3508 19.9708 16.1328 19.8428 15.8728C19.7188 15.6088 19.6568 15.3028 19.6568 14.9548V10.7428H20.7668V14.8408C20.7668 15.2448 20.8908 15.5728 21.1388 15.8248C21.3908 16.0768 21.7688 16.2028 22.2728 16.2028C22.7288 16.2028 23.0948 16.0848 23.3708 15.8488C23.6508 15.6088 23.7908 15.2528 23.7908 14.7808V10.7428H24.8948V16.9468H24.0128L23.8988 15.7588C23.8228 16.0708 23.6928 16.3228 23.5088 16.5148C23.3288 16.7068 23.1108 16.8488 22.8548 16.9408C22.6028 17.0288 22.3308 17.0708 22.0388 17.0668ZM28.9518 17.0668C28.5198 17.0668 28.1178 17.0008 27.7458 16.8688C27.3778 16.7328 27.0718 16.5228 26.8278 16.2388C26.5838 15.9508 26.4318 15.5848 26.3718 15.1408H27.3798C27.4318 15.3848 27.5318 15.5888 27.6798 15.7528C27.8278 15.9128 28.0098 16.0348 28.2258 16.1188C28.4458 16.1988 28.6858 16.2388 28.9458 16.2388C29.3658 16.2388 29.7038 16.1608 29.9598 16.0048C30.2158 15.8488 30.3438 15.6088 30.3438 15.2848C30.3438 15.0568 30.2758 14.8748 30.1398 14.7388C30.0078 14.5988 29.7998 14.4968 29.5158 14.4328L28.2318 14.1148C27.7318 13.9948 27.3318 13.8068 27.0318 13.5508C26.7358 13.2948 26.5858 12.9368 26.5818 12.4768C26.5818 12.1128 26.6698 11.7928 26.8458 11.5168C27.0218 11.2408 27.2838 11.0228 27.6318 10.8628C27.9838 10.7028 28.4218 10.6228 28.9458 10.6228C29.6218 10.6228 30.1658 10.7748 30.5778 11.0788C30.9898 11.3788 31.2058 11.8208 31.2258 12.4048H30.2418C30.2018 12.1088 30.0698 11.8748 29.8458 11.7028C29.6218 11.5268 29.3178 11.4388 28.9338 11.4388C28.5418 11.4388 28.2198 11.5188 27.9678 11.6788C27.7198 11.8348 27.5958 12.0788 27.5958 12.4108C27.5958 12.6308 27.6838 12.8048 27.8598 12.9328C28.0398 13.0568 28.2998 13.1608 28.6398 13.2448L29.8878 13.5568C30.1718 13.6328 30.4078 13.7328 30.5958 13.8568C30.7838 13.9808 30.9318 14.1188 31.0398 14.2708C31.1478 14.4228 31.2238 14.5828 31.2678 14.7508C31.3158 14.9148 31.3398 15.0728 31.3398 15.2248C31.3398 15.6048 31.2458 15.9328 31.0578 16.2088C30.8698 16.4808 30.5978 16.6928 30.2418 16.8448C29.8858 16.9928 29.4558 17.0668 28.9518 17.0668ZM34.9352 16.9768C34.5072 16.9768 34.1752 16.9188 33.9392 16.8028C33.7032 16.6868 33.5372 16.5148 33.4412 16.2868C33.3492 16.0588 33.3032 15.7788 33.3032 15.4468V11.5528H32.2952V10.7428H33.3332L33.6032 8.93678H34.4192V10.7368H35.8172V11.5528H34.4192V15.4108C34.4192 15.6308 34.4412 15.7928 34.4852 15.8968C34.5332 15.9968 34.6112 16.0608 34.7192 16.0888C34.8272 16.1168 34.9792 16.1308 35.1752 16.1308H35.8532V16.8748C35.7772 16.9028 35.6612 16.9268 35.5052 16.9468C35.3532 16.9668 35.1632 16.9768 34.9352 16.9768ZM39.6452 17.0668C39.0732 17.0668 38.5732 16.9448 38.1452 16.7008C37.7212 16.4528 37.3912 16.0908 37.1552 15.6148C36.9192 15.1388 36.8012 14.5568 36.8012 13.8688C36.8012 13.2208 36.9112 12.6528 37.1312 12.1648C37.3512 11.6768 37.6732 11.2988 38.0972 11.0308C38.5212 10.7588 39.0392 10.6228 39.6512 10.6228C40.2232 10.6228 40.7192 10.7488 41.1392 11.0008C41.5592 11.2488 41.8852 11.6148 42.1172 12.0988C42.3532 12.5828 42.4712 13.1728 42.4712 13.8688C42.4712 14.5008 42.3632 15.0568 42.1472 15.5368C41.9312 16.0168 41.6132 16.3928 41.1932 16.6648C40.7772 16.9328 40.2612 17.0668 39.6452 17.0668ZM39.6512 16.1908C40.0192 16.1908 40.3312 16.0968 40.5872 15.9088C40.8432 15.7208 41.0372 15.4508 41.1692 15.0988C41.3052 14.7468 41.3732 14.3288 41.3732 13.8448C41.3732 13.4008 41.3132 13.0028 41.1932 12.6508C41.0772 12.2948 40.8932 12.0128 40.6412 11.8048C40.3892 11.5968 40.0592 11.4928 39.6512 11.4928C39.2752 11.4928 38.9572 11.5868 38.6972 11.7748C38.4372 11.9588 38.2392 12.2268 38.1032 12.5788C37.9712 12.9308 37.9052 13.3528 37.9052 13.8448C37.9052 14.2808 37.9632 14.6768 38.0792 15.0328C38.1992 15.3888 38.3872 15.6708 38.6432 15.8788C38.9032 16.0868 39.2392 16.1908 39.6512 16.1908ZM43.9463 16.9468V10.7428H45.0143V11.6428C45.1863 11.3708 45.4223 11.1328 45.7223 10.9288C46.0223 10.7248 46.4123 10.6228 46.8923 10.6228C47.1163 10.6228 47.3443 10.6608 47.5763 10.7368C47.8123 10.8128 48.0283 10.9268 48.2243 11.0788C48.4203 11.2308 48.5723 11.4168 48.6803 11.6368C48.8723 11.3328 49.1323 11.0888 49.4603 10.9048C49.7883 10.7168 50.1583 10.6228 50.5703 10.6228C50.7863 10.6228 51.0123 10.6568 51.2483 10.7248C51.4843 10.7888 51.7023 10.9048 51.9023 11.0728C52.1063 11.2368 52.2723 11.4668 52.4003 11.7628C52.5283 12.0548 52.5923 12.4308 52.5923 12.8908V16.9468H51.4763V12.9988C51.4763 12.6228 51.4163 12.3328 51.2963 12.1288C51.1763 11.9208 51.0183 11.7748 50.8223 11.6908C50.6303 11.6068 50.4243 11.5648 50.2043 11.5648C50.0123 11.5648 49.8083 11.6028 49.5923 11.6788C49.3763 11.7548 49.1923 11.8828 49.0403 12.0628C48.8883 12.2428 48.8123 12.4888 48.8123 12.8008V16.9468H47.7083V12.6748C47.7083 12.4308 47.6423 12.2268 47.5103 12.0628C47.3823 11.8988 47.2203 11.7748 47.0243 11.6908C46.8323 11.6068 46.6403 11.5648 46.4483 11.5648C46.2363 11.5648 46.0223 11.6068 45.8063 11.6908C45.5943 11.7748 45.4143 11.9088 45.2663 12.0928C45.1223 12.2728 45.0503 12.5088 45.0503 12.8008V16.9468H43.9463ZM57.4751 16.9468V8.27078H60.2651C61.3211 8.27078 62.1191 8.46478 62.6591 8.85278C63.2031 9.24078 63.4751 9.80078 63.4751 10.5328C63.4751 10.9928 63.3551 11.3868 63.1151 11.7148C62.8791 12.0428 62.4631 12.3128 61.8671 12.5248C62.2071 12.5968 62.4931 12.7008 62.7251 12.8368C62.9611 12.9728 63.1491 13.1328 63.2891 13.3168C63.4331 13.4968 63.5351 13.6968 63.5951 13.9168C63.6591 14.1368 63.6911 14.3688 63.6911 14.6128C63.6911 15.3968 63.4111 15.9828 62.8511 16.3708C62.2951 16.7548 61.4631 16.9468 60.3551 16.9468H57.4751ZM58.5851 16.0228H60.3431C61.0671 16.0228 61.6171 15.9048 61.9931 15.6688C62.3731 15.4288 62.5631 15.0608 62.5631 14.5648C62.5631 14.2008 62.4691 13.9068 62.2811 13.6828C62.0971 13.4548 61.8471 13.2888 61.5311 13.1848C61.2151 13.0808 60.8631 13.0288 60.4751 13.0288H58.5851V16.0228ZM58.5851 12.0868H60.4751C60.7031 12.0868 60.9291 12.0648 61.1531 12.0208C61.3771 11.9768 61.5831 11.9008 61.7711 11.7928C61.9591 11.6848 62.1111 11.5408 62.2271 11.3608C62.3431 11.1768 62.4011 10.9468 62.4011 10.6708C62.4011 10.1668 62.2071 9.79478 61.8191 9.55478C61.4351 9.31078 60.9351 9.18878 60.3191 9.18878H58.5851V12.0868ZM67.5779 17.0668C67.2539 17.0628 66.9479 17.0168 66.6599 16.9288C66.3759 16.8368 66.1239 16.7028 65.9039 16.5268C65.6839 16.3508 65.5099 16.1328 65.3819 15.8728C65.2579 15.6088 65.1959 15.3028 65.1959 14.9548V10.7428H66.3059V14.8408C66.3059 15.2448 66.4299 15.5728 66.6779 15.8248C66.9299 16.0768 67.3079 16.2028 67.8119 16.2028C68.2679 16.2028 68.6339 16.0848 68.9099 15.8488C69.1899 15.6088 69.3299 15.2528 69.3299 14.7808V10.7428H70.4339V16.9468H69.5519L69.4379 15.7588C69.3619 16.0708 69.2319 16.3228 69.0479 16.5148C68.8679 16.7068 68.6499 16.8488 68.3939 16.9408C68.1419 17.0288 67.8699 17.0708 67.5779 17.0668ZM74.5328 16.9768C74.1048 16.9768 73.7728 16.9188 73.5368 16.8028C73.3008 16.6868 73.1348 16.5148 73.0388 16.2868C72.9468 16.0588 72.9008 15.7788 72.9008 15.4468V11.5528H71.8928V10.7428H72.9308L73.2008 8.93678H74.0168V10.7368H75.4148V11.5528H74.0168V15.4108C74.0168 15.6308 74.0388 15.7928 74.0828 15.8968C74.1308 15.9968 74.2088 16.0608 74.3168 16.0888C74.4248 16.1168 74.5768 16.1308 74.7728 16.1308H75.4508V16.8748C75.3748 16.9028 75.2588 16.9268 75.1028 16.9468C74.9508 16.9668 74.7608 16.9768 74.5328 16.9768ZM78.5992 16.9768C78.1712 16.9768 77.8392 16.9188 77.6032 16.8028C77.3672 16.6868 77.2012 16.5148 77.1052 16.2868C77.0132 16.0588 76.9672 15.7788 76.9672 15.4468V11.5528H75.9592V10.7428H76.9972L77.2672 8.93678H78.0832V10.7368H79.4812V11.5528H78.0832V15.4108C78.0832 15.6308 78.1052 15.7928 78.1492 15.8968C78.1972 15.9968 78.2752 16.0608 78.3832 16.0888C78.4912 16.1168 78.6432 16.1308 78.8392 16.1308H79.5172V16.8748C79.4412 16.9028 79.3252 16.9268 79.1692 16.9468C79.0172 16.9668 78.8272 16.9768 78.5992 16.9768ZM83.3092 17.0668C82.7372 17.0668 82.2372 16.9448 81.8092 16.7008C81.3852 16.4528 81.0552 16.0908 80.8192 15.6148C80.5832 15.1388 80.4652 14.5568 80.4652 13.8688C80.4652 13.2208 80.5752 12.6528 80.7952 12.1648C81.0152 11.6768 81.3372 11.2988 81.7612 11.0308C82.1852 10.7588 82.7032 10.6228 83.3152 10.6228C83.8872 10.6228 84.3832 10.7488 84.8032 11.0008C85.2232 11.2488 85.5492 11.6148 85.7812 12.0988C86.0172 12.5828 86.1352 13.1728 86.1352 13.8688C86.1352 14.5008 86.0272 15.0568 85.8112 15.5368C85.5952 16.0168 85.2772 16.3928 84.8572 16.6648C84.4412 16.9328 83.9252 17.0668 83.3092 17.0668ZM83.3152 16.1908C83.6832 16.1908 83.9952 16.0968 84.2512 15.9088C84.5072 15.7208 84.7012 15.4508 84.8332 15.0988C84.9692 14.7468 85.0372 14.3288 85.0372 13.8448C85.0372 13.4008 84.9772 13.0028 84.8572 12.6508C84.7412 12.2948 84.5572 12.0128 84.3052 11.8048C84.0532 11.5968 83.7232 11.4928 83.3152 11.4928C82.9392 11.4928 82.6212 11.5868 82.3612 11.7748C82.1012 11.9588 81.9032 12.2268 81.7672 12.5788C81.6352 12.9308 81.5692 13.3528 81.5692 13.8448C81.5692 14.2808 81.6272 14.6768 81.7432 15.0328C81.8632 15.3888 82.0512 15.6708 82.3072 15.8788C82.5672 16.0868 82.9032 16.1908 83.3152 16.1908ZM87.6104 16.9468V10.7428H88.6844V11.6428C88.7844 11.4708 88.9224 11.3088 89.0984 11.1568C89.2784 11.0048 89.4944 10.8828 89.7464 10.7908C90.0024 10.6988 90.2964 10.6528 90.6284 10.6528C91.0204 10.6528 91.3804 10.7308 91.7084 10.8868C92.0404 11.0428 92.3044 11.2868 92.5004 11.6188C92.7004 11.9468 92.8004 12.3708 92.8004 12.8908V16.9468H91.6904V12.9988C91.6904 12.5148 91.5624 12.1568 91.3064 11.9248C91.0544 11.6888 90.7264 11.5708 90.3224 11.5708C90.0424 11.5708 89.7804 11.6168 89.5364 11.7088C89.2924 11.7968 89.0944 11.9328 88.9424 12.1168C88.7904 12.2968 88.7144 12.5248 88.7144 12.8008V16.9468H87.6104Z" fill="black"/>
</svg>
